<svg xmlns="http://www.w3.org/2000/svg" xmlns:svg="http://www.w3.org/2000/svg" id="svg4682" width="24" height="24" version="1.1"><metadata id="metadata4687"/><g id="layer1" transform="translate(0,-1028.3622)"><path style="color:#000;font-style:normal;font-variant:normal;font-weight:400;font-stretch:normal;font-size:medium;line-height:normal;font-family:sans-serif;font-variant-ligatures:normal;font-variant-position:normal;font-variant-caps:normal;font-variant-numeric:normal;font-variant-alternates:normal;font-feature-settings:normal;text-indent:0;text-align:start;text-decoration:none;text-decoration-line:none;text-decoration-style:solid;text-decoration-color:#000;letter-spacing:normal;word-spacing:normal;text-transform:none;writing-mode:lr-tb;direction:ltr;text-orientation:mixed;dominant-baseline:auto;baseline-shift:baseline;text-anchor:start;white-space:normal;shape-padding:0;clip-rule:nonzero;display:inline;overflow:visible;visibility:visible;opacity:1;isolation:auto;mix-blend-mode:normal;color-interpolation:sRGB;color-interpolation-filters:linearRGB;solid-color:#000;solid-opacity:1;vector-effect:none;fill:#212121;fill-opacity:1;fill-rule:evenodd;stroke:none;stroke-width:2.25;stroke-linecap:round;stroke-linejoin:round;stroke-miterlimit:4;stroke-dasharray:none;stroke-dashoffset:0;stroke-opacity:1;color-rendering:auto;image-rendering:auto;shape-rendering:auto;text-rendering:auto;enable-background:accumulate" id="path7574-6" d="m 17.049316,1031.0253 c -0.145237,0 -0.290267,0.061 -0.397704,0.1757 -0.100125,0.1002 -0.15105,0.2407 -0.151612,0.3824 v 2.0281 H 8.625 c -1.8640125,0 -3.375,1.5109 -3.375,3.375 v 1.125 c -0.01125,0.6342 0.5083031,1.1503 1.1425781,1.1404 0.6204375,-0.011 1.1159719,-0.5199 1.1074219,-1.1404 v -1.125 c 0,-0.6214 0.5036625,-1.125 1.125,-1.125 H 11.802246 16.5 v 2.0302 c 2.25e-4,0.4967 0.600078,0.7445 0.951416,0.3933 L 21,1034.7365 l -3.548584,-3.5486 c -0.111375,-0.1114 -0.256975,-0.1653 -0.4021,-0.1626 z m -5.0625,6.7939 c -0.175837,0 -0.332656,0.075 -0.487792,0.1648 l -1.447999,0.7559 c -0.6651,0.3485 -0.14215,1.346 0.52295,0.9975 l 0.582275,-0.3054 v 2.6192 c -0.01575,1.141 1.703588,1.141 1.6875,0 v -3.375 c 0.01125,-0.4763 -0.380609,-0.8644 -0.856934,-0.857 z m 5.620606,3.6518 c -0.620438,0.011 -1.115972,0.5199 -1.107422,1.1405 v 1.125 c 0,0.6213 -0.503663,1.125 -1.125,1.125 H 12.197754 7.5 v -2.0281 c -2.25e-4,-0.4967 -0.6000785,-0.7466 -0.951416,-0.3955 L 3,1045.9887 l 3.548584,3.5486 c 0.222075,0.2221 0.58262,0.2145 0.7976074,-0.016 0.100125,-0.1001 0.1532461,-0.2383 0.1538086,-0.3801 v -2.0303 h 7.875 c 1.864012,0 3.375,-1.511 3.375,-3.375 v -1.125 c 0.01125,-0.6343 -0.508303,-1.1503 -1.142578,-1.1404 z"/></g></svg>