<svg xmlns="http://www.w3.org/2000/svg" xmlns:svg="http://www.w3.org/2000/svg" id="SVGRoot" width="48" height="48" version="1.1" viewBox="0 0 48 48"><metadata id="metadata3532"/><g id="layer1"><path id="path37253" style="color:#000;fill:#000;fill-rule:evenodd;stroke-linecap:round;-inkscape-stroke:none" d="m 33.707,17.12109 2.586,2.58594 C 36.9355,20.33282 38.001,19.89017 38,19 v -8 c -1e-4,-0.55226 -0.4477,-0.99994 -1,-1 h -8 c -0.8903,-0.006 -1.3334,1.01686 -0.707,1.70703 l 2.5859,2.58594 -19.293,19.29297 c -0.7808,0.78101 -0.7808,2.04711 0,2.82812 0.781,0.7809 2.0472,0.7809 2.8282,0 z m -21.0195,-6.0957 c -0.4172,0.0659 -0.8028,0.26207 -1.1016,0.56055 -0.7808,0.78101 -0.7808,2.04711 0,2.82812 l 6.7579,6.75782 2.8281,-2.82813 -6.7578,-6.75781 c -0.4527,-0.45232 -1.0945,-0.6607 -1.7266,-0.56055 z m 16.9687,15.80273 -2.8281,2.82813 4.0508,4.05078 -2.5859,2.58594 C 27.6666,36.98314 28.1097,38.006 29,38 h 8 c 0.5523,-6e-5 0.9999,-0.44774 1,-1 v -8 c 0,-0.89017 -1.0645,-1.33282 -1.707,-0.70703 l -2.586,2.58594 z"/></g></svg>