<svg xmlns="http://www.w3.org/2000/svg" xmlns:svg="http://www.w3.org/2000/svg" id="svg4682" width="24" height="24" version="1.1"><metadata id="metadata4687"/><g id="layer1" transform="translate(0,-1028.3622)"><path style="color:#000;display:inline;overflow:visible;visibility:visible;opacity:1;vector-effect:none;fill:#212121;fill-opacity:1;fill-rule:nonzero;stroke:none;stroke-width:1.125;stroke-linecap:round;stroke-linejoin:round;stroke-miterlimit:4;stroke-dasharray:none;stroke-dashoffset:0;stroke-opacity:1;marker:none;paint-order:markers fill stroke;enable-background:accumulate" id="path7861" d="m 5.25,1038.1122 a 2.25,2.25 0 0 0 -2.25,2.25 2.25,2.25 0 0 0 2.25,2.25 2.25,2.25 0 0 0 2.25,-2.25 2.25,2.25 0 0 0 -2.25,-2.25 z m 6.75,0 a 2.25,2.25 0 0 0 -2.25,2.25 2.25,2.25 0 0 0 2.25,2.25 2.25,2.25 0 0 0 2.25,-2.25 2.25,2.25 0 0 0 -2.25,-2.25 z m 6.75,0 a 2.25,2.25 0 0 0 -2.25,2.25 2.25,2.25 0 0 0 2.25,2.25 2.25,2.25 0 0 0 2.25,-2.25 2.25,2.25 0 0 0 -2.25,-2.25 z"/></g></svg>