<svg xmlns="http://www.w3.org/2000/svg" xmlns:svg="http://www.w3.org/2000/svg" id="SVGRoot" width="48" height="48" version="1.1" viewBox="0 0 48 48"><metadata id="metadata3625"/><g id="layer1"><path id="path3110" style="color:#000;overflow:visible;fill:#000;fill-opacity:1;stroke:none;stroke-width:3.93043;stroke-linecap:butt;stroke-linejoin:round;stroke-miterlimit:4;stroke-dasharray:none" d="M 21.939453 6 A 4 4 0 0 0 18 10 L 18 14 L 18 27.072266 A 8 8 0 0 0 14 26 A 8 8 0 0 0 6 34 A 8 8 0 0 0 14 42 A 8 8 0 0 0 22 34 L 22 14 L 26.060547 14 A 4 4 0 0 0 30 10 L 30 6 L 21.939453 6 z M 38 20 L 36.666016 24.666016 L 32 26 L 36.666016 27.333984 L 38 32 L 39.333984 27.333984 L 44 26 L 39.333984 24.666016 L 38 20 z M 32 28 L 30 34 L 24 36 L 30 38 L 32 44 L 34 38 L 40 36 L 34 34 L 32 28 z M 13.939453 30 A 4 4 0 0 1 14 30 A 4 4 0 0 1 18 34 A 4 4 0 0 1 14 38 A 4 4 0 0 1 10 34 A 4 4 0 0 1 13.939453 30 z"/></g></svg>