<svg xmlns="http://www.w3.org/2000/svg" xmlns:svg="http://www.w3.org/2000/svg" id="SVGRoot" width="64" height="64" version="1.1" viewBox="0 0 64 64"><metadata id="metadata7681"/><g id="layer1" transform="translate(7.9999428,8.0000574)"><circle id="circle2266" cx="24" cy="24" r="32" style="opacity:1;fill:#000;fill-opacity:1;stroke:none;stroke-width:3.84306884;stroke-linecap:round;stroke-linejoin:round;stroke-miterlimit:4;stroke-dasharray:none;stroke-dashoffset:0;stroke-opacity:1;paint-order:markers fill stroke"/><g id="g12-2-5" transform="matrix(2,0,0,2,5.81e-5,-9.38623e-7)" style="fill:#fff;fill-opacity:1"><g id="g10-2-4" style="fill:#fff;fill-opacity:1"><g id="g8-4-8" style="fill:#fff;fill-opacity:1"><path id="path6-4-7-1" d="M 8.5,15 H 7.3 L 4.75,11.5 V 15 H 3.5 V 9 h 1.25 l 2.5,3.5 V 9 H 8.5 Z m 5,-4.74 H 11 v 1.12 h 2.5 v 1.26 H 11 v 1.11 h 2.5 V 15 h -4 V 9 h 4 z m 7,3.74 c 0,0.55 -0.45,1 -1,1 h -4 c -0.55,0 -1,-0.45 -1,-1 V 9 h 1.25 v 4.51 h 1.13 V 9.99 h 1.25 v 3.51 h 1.12 V 9 h 1.25 z" style="fill:#fff;fill-opacity:1"/></g></g></g></g></svg>