<svg xmlns="http://www.w3.org/2000/svg" xmlns:svg="http://www.w3.org/2000/svg" id="SVGRoot" width="48" height="48" version="1.1" viewBox="0 0 48 48"><metadata id="metadata2415"/><g id="layer1"><path id="path2737" style="opacity:1;fill:#000;fill-opacity:1;stroke:none;stroke-width:3.2;stroke-linecap:round;stroke-linejoin:round;stroke-miterlimit:4;stroke-dasharray:none;stroke-dashoffset:0;stroke-opacity:1;paint-order:markers fill stroke" d="M 25.177734,4.8203125 C 24.523654,4.8323185 23.999951,5.3653552 24,6.0195312 v 5.1601568 c -8.836555,0 -16,7.163443 -16,16 0,8.836555 7.163445,16 16,16 8.836555,0 16,-7.163447 16,-16 h -3.199219 c 0,7.069243 -5.731536,12.800781 -12.800781,12.800781 -7.069245,0 -12.800781,-5.731538 -12.800781,-12.800781 0,-7.069245 5.731536,-12.800782 12.800781,-12.800782 v 5.197266 c 4.16e-4,1.067557 1.290286,1.602839 2.046875,0.849609 l 6.802734,-6.796875 c 0.46951,-0.469812 0.469608,-1.231181 -0.002,-1.699218 L 26.046875,5.1679688 C 25.81623,4.9396297 25.502262,4.813672 25.177734,4.8203125 Z"/></g></svg>