<svg xmlns="http://www.w3.org/2000/svg" xmlns:svg="http://www.w3.org/2000/svg" id="SVGRoot" width="64" height="64" version="1.1" viewBox="0 0 64 64"><metadata id="metadata7681"/><g id="layer1" transform="translate(7.9999428,8.0000574)"><circle style="opacity:1;fill:#000;fill-opacity:1;stroke:none;stroke-width:3.84306884;stroke-linecap:round;stroke-linejoin:round;stroke-miterlimit:4;stroke-dasharray:none;stroke-dashoffset:0;stroke-opacity:1;paint-order:markers fill stroke" id="path2264" cx="24" cy="24" r="32"/><g id="layer1-59" transform="translate(-0.01973,-0.057343)" style="fill:#fff"><path id="path6186-2" d="m 23.302734,6.060466 c -4.24067,0.1686 -8.285382,1.8303 -11.419922,4.6915 -0.7569,0.6906 -1.453441,1.4447 -2.082031,2.2539 -2.435051,3.1483 -3.755708,7.0148 -3.759765,10.9941 H 3 c -0.84762,-3e-4 -1.307262,0.9809 -0.767578,1.6406 l 5,6 c 0.39979,0.4787 1.135366,0.4787 1.535156,0 l 5,-6 c 0.53988,-0.634 0.08,-1.6388 -0.767578,-1.6406 h -2.972656 c 0.008,-3.0923 1.036976,-6.0959 2.93164,-8.541 4.74118,-6.1083 13.536592,-7.2163 19.644532,-2.4746 6.10832,4.7412 7.216279,13.5366 2.474609,19.6445 -4.74118,6.1083 -13.535654,7.2163 -19.646484,2.4727 -0.3585,-0.2761 -0.797024,-0.4227 -1.246094,-0.418 -0.61038,0.01 -1.184304,0.2913 -1.558594,0.7734 -0.67757,0.8727 -0.519291,2.1303 0.355469,2.8086 7.85414,6.0938 19.158466,4.6686 25.253906,-3.1816 6.097242,-7.8527 4.673592,-19.1614 -3.179687,-25.2578 -3.35174,-2.6012 -7.514587,-3.935 -11.753907,-3.7657 z M 24,15.999966 c -0.831,0 -1.5,0.669 -1.5,1.5 v 7.5 c 0,0.4255 0.176214,0.8076 0.458984,1.0801 l 3.869141,3.8691 c 0.5876,0.5876 1.533484,0.5876 2.121094,0 0.5876,-0.5876 0.5876,-1.5334 0,-2.1211 L 25.5,24.378866 v -6.8789 c 0,-0.831 -0.669,-1.5 -1.5,-1.5 z" style="color:#000;display:inline;overflow:visible;visibility:visible;opacity:1;vector-effect:none;fill:#fff;fill-opacity:1;fill-rule:nonzero;stroke:none;stroke-width:9;stroke-linecap:round;stroke-linejoin:round;stroke-miterlimit:4;stroke-dasharray:none;stroke-dashoffset:0;stroke-opacity:1;marker:none;paint-order:normal;enable-background:accumulate"/></g></g></svg>