<svg xmlns="http://www.w3.org/2000/svg" xmlns:svg="http://www.w3.org/2000/svg" id="svg1020" width="24" height="24" version="1.1" viewBox="0 0 6.35 6.35"><metadata id="metadata1017"/><g id="layer1" transform="translate(0,-290.64998)"><path style="color:#000;font-style:normal;font-variant:normal;font-weight:400;font-stretch:normal;font-size:medium;line-height:normal;font-family:sans-serif;font-variant-ligatures:normal;font-variant-position:normal;font-variant-caps:normal;font-variant-numeric:normal;font-variant-alternates:normal;font-feature-settings:normal;text-indent:0;text-align:start;text-decoration:none;text-decoration-line:none;text-decoration-style:solid;text-decoration-color:#000;letter-spacing:normal;word-spacing:normal;text-transform:none;writing-mode:lr-tb;direction:ltr;text-orientation:mixed;dominant-baseline:auto;baseline-shift:baseline;text-anchor:start;white-space:normal;shape-padding:0;clip-rule:nonzero;display:inline;overflow:visible;visibility:visible;opacity:1;isolation:auto;mix-blend-mode:normal;color-interpolation:sRGB;color-interpolation-filters:linearRGB;solid-color:#000;solid-opacity:1;vector-effect:none;fill:#000;fill-opacity:1;fill-rule:evenodd;stroke:none;stroke-width:.26458332px;stroke-linecap:butt;stroke-linejoin:miter;stroke-miterlimit:4;stroke-dasharray:none;stroke-dashoffset:0;stroke-opacity:1;color-rendering:auto;image-rendering:auto;shape-rendering:auto;text-rendering:auto;enable-background:accumulate" id="path7994" d="m 1.0583333,291.70831 -0.2645833,0.26458 1.0583333,1.05834 c 0,0.19505 0.044318,0.38756 0.1271323,0.5638 l 1.0722769,2.26237 c 0.00265,0.003 0.00291,0.006 0.00476,0.009 0.02196,0.0457 0.068157,0.0748 0.1188508,0.0749 0.053155,5e-5 0.1011767,-0.0317 0.1219465,-0.0806 l 0.4454525,-0.93948 1.2846844,1.28468 0.2645833,-0.26458 z m 2.1166667,0 c -0.433414,0 -0.8147579,0.21016 -1.0547085,0.53279 l 1.9626527,1.96265 0.288872,-0.60872 c 0.083582,-0.17624 0.1256507,-0.36875 0.1261005,-0.5638 0,-0.73062 -0.5922963,-1.32293 -1.3229167,-1.32292 z"/></g></svg>