<svg xmlns="http://www.w3.org/2000/svg" xmlns:svg="http://www.w3.org/2000/svg" id="SVGRoot" width="48" height="48" version="1.1" viewBox="0 0 48 48"><metadata id="metadata2415"/><g id="layer1"><path style="opacity:1;fill:#000;fill-opacity:1;stroke:none;stroke-width:3.2;stroke-linecap:round;stroke-linejoin:round;stroke-miterlimit:4;stroke-dasharray:none;stroke-dashoffset:0;stroke-opacity:1;paint-order:markers fill stroke" id="path2737" d="m 25.178125,4.8204381 c -0.65408,0.012006 -1.178174,0.545824 -1.178125,1.2 v 5.1593749 c -8.836555,0 -16,7.163445 -16,16 0,8.836555 7.163445,16 16,16 8.836555,0 16,-7.163445 16,-16 h -3.2 c 0,7.069244 -5.730755,12.8 -12.8,12.8 -7.069245,0 -12.8,-5.730756 -12.8,-12.8 0,-7.069245 5.730755,-12.8 12.8,-12.8 v 5.196875 c 4.16e-4,1.067557 1.290287,1.603229 2.046876,0.849999 l 6.803123,-6.796874 c 0.46951,-0.469812 0.46822,-1.231962 -0.0032,-1.7 l -6.8,-6.7624996 C 25.816154,4.9389744 25.502652,4.8137976 25.178124,4.8204381 Z m -3.58125,18.3593749 -0.04375,0.01875 -3.95313,1.58125 v 2.4 l 1.6,-0.640626 v 7.040626 h 2.4 v -8 -2.4 z m 6.003125,0 c -1.9944,0 -3.6,1.6056 -3.6,3.6 v 3.2 c 0,1.9944 1.6056,3.6 3.6,3.6 1.9944,0 3.6,-1.6056 3.6,-3.6 v -3.2 c 0,-1.9944 -1.6056,-3.6 -3.6,-3.6 z m 0,2.4 c 0.6648,0 1.2,0.5352 1.2,1.2 v 3.2 c 0,0.6648 -0.5352,1.2 -1.2,1.2 -0.6648,0 -1.2,-0.5352 -1.2,-1.2 v -3.2 c 0,-0.6648 0.5352,-1.2 1.2,-1.2 z"/></g></svg>