<svg xmlns="http://www.w3.org/2000/svg" xmlns:svg="http://www.w3.org/2000/svg" id="SVGRoot" width="48" height="48" version="1.1" viewBox="0 0 48 48"><metadata id="metadata7681"/><g id="layer1"><path style="opacity:1;fill:#fff;fill-opacity:1;stroke:none;stroke-width:.1;stroke-linecap:round;stroke-linejoin:round;stroke-miterlimit:4;stroke-dasharray:none;stroke-dashoffset:0;stroke-opacity:1;paint-order:markers fill stroke" id="path3660" d="M 24,3.9999958 A 20,20 0 0 0 4,23.999996 a 20,20 0 0 0 20,20 20,20 0 0 0 20,-20 A 20,20 0 0 0 24,3.9999958 Z m 0,11.0000002 a 9,9 0 0 1 9,9 9,9 0 0 1 -9,9 9,9 0 0 1 -9,-9 9,9 0 0 1 9,-9 z m 0,7 c -1.10456,0 -2,0.89544 -2,2 0,1.10456 0.89544,2 2,2 1.10456,0 2,-0.89544 2,-2 0,-1.10456 -0.89544,-2 -2,-2 z"/></g></svg>