<svg xmlns="http://www.w3.org/2000/svg" xmlns:svg="http://www.w3.org/2000/svg" id="SVGRoot" width="48" height="48" version="1.1" viewBox="0 0 48 48"><metadata id="metadata7681"/><g id="layer1"><path style="fill:#fff;stroke-width:2" id="path2416" d="M 4,0 C 1.79086,0 0,1.7909 0,4 v 40 c 0,2.2091 1.79086,4 4,4 h 40 c 2.20914,0 4,-1.7909 4,-4 V 4 C 48,1.7909 46.20914,0 44,0 Z m 30,8 v 24.0039 c 0,2.4853 -2.01472,4.5 -4.5,4.5 -2.48528,0 -4.5,-2.0147 -4.5,-4.5 0,-2.4853 2.01472,-4.5 4.5,-4.5 0.16712,10e-4 0.334,0.011 0.5,0.031 V 16.0036 l -10,4 v 15.5 c 0,2.4853 -2.01472,4.4961 -4.5,4.4961 -2.48528,0 -4.5,-2.0108 -4.5,-4.4961 0,-2.4853 2.01472,-4.5 4.5,-4.5 0.16712,0.001 0.334,0.011 0.5,0.031 V 17.3002 c -1.9e-4,-0.7905 0.4652,-1.5069 1.1875,-1.8281 z"/></g></svg>