<svg xmlns="http://www.w3.org/2000/svg" xmlns:svg="http://www.w3.org/2000/svg" id="SVGRoot" width="48" height="48" version="1.1" viewBox="0 0 48 48"><metadata id="metadata7681"/><g id="layer1"><path style="fill:#fff;stroke-width:2" id="path2372" d="M 4 0 C 1.79086 0 0 1.7909 0 4 L 0 44 C 0 46.2091 1.79086 48 4 48 L 44 48 C 46.20914 48 48 46.2091 48 44 L 48 4 C 48 1.7909 46.20914 0 44 0 L 4 0 z M 13.550781 8 C 13.802174 8.0087896 14.047321 8.0806675 14.263672 8.2089844 L 38.763672 22.708984 C 39.74518 23.289781 39.74518 24.710218 38.763672 25.291016 L 14.263672 39.789062 C 13.263766 40.38023 12.000226 39.659556 12 38.498047 L 12 9.5 C 11.9996 8.6514463 12.702631 7.9713598 13.550781 8 z"/></g></svg>