<svg xmlns="http://www.w3.org/2000/svg" xmlns:svg="http://www.w3.org/2000/svg" id="SVGRoot" width="48" height="48" version="1.1" viewBox="0 0 48 48"><metadata id="metadata2415"/><g id="layer1"><path style="opacity:1;fill:#000;fill-opacity:1;stroke:none;stroke-width:3.2;stroke-linecap:round;stroke-linejoin:round;stroke-miterlimit:4;stroke-dasharray:none;stroke-dashoffset:0;stroke-opacity:1;paint-order:markers fill stroke" id="path2737" d="m 22.821875,4.8204408 c -0.324528,-0.00672 -0.638031,0.118544 -0.868751,0.3468757 l -6.8,6.7624995 c -0.471343,0.468038 -0.472708,1.230189 -0.0032,1.7 l 6.803126,6.796875 c 0.756586,0.753229 2.046534,0.217557 2.04695,-0.85 v -5.196875 a 12.8,12.8 0 0 1 12.8,12.8 12.8,12.8 0 0 1 -12.8,12.8 12.8,12.8 0 0 1 -12.8,-12.8 H 8 a 16,16 0 0 0 16,16 16,16 0 0 0 16,-16 16,16 0 0 0 -16,-16 V 6.0204408 c 4.8e-5,-0.654176 -0.524045,-1.188 -1.178125,-1.2 z m -1.225,18.3593752 -0.04374,0.01875 L 17.6,24.779816 v 2.4 l 1.6,-0.640626 v 7.040626 h 2.4 v -8 -2.4 z m 6.003125,0 c -1.9944,0 -3.6,1.6056 -3.6,3.6 v 3.2 c 0,1.9944 1.6056,3.6 3.6,3.6 1.9944,0 3.6,-1.6056 3.6,-3.6 v -3.2 c 0,-1.9944 -1.6056,-3.6 -3.6,-3.6 z m 0,2.4 c 0.6648,0 1.2,0.5352 1.2,1.2 v 3.2 c 0,0.6648 -0.5352,1.2 -1.2,1.2 -0.6648,0 -1.2,-0.5352 -1.2,-1.2 v -3.2 c 0,-0.6648 0.5352,-1.2 1.2,-1.2 z"/></g></svg>