<svg xmlns="http://www.w3.org/2000/svg" xmlns:svg="http://www.w3.org/2000/svg" id="SVGRoot" width="48" height="48" version="1.1" viewBox="0 0 48 48"><metadata id="metadata7681"/><g id="layer1"><path style="color:#000;font-style:normal;font-variant:normal;font-weight:400;font-stretch:normal;font-size:medium;line-height:normal;font-family:sans-serif;font-variant-ligatures:normal;font-variant-position:normal;font-variant-caps:normal;font-variant-numeric:normal;font-variant-alternates:normal;font-feature-settings:normal;text-indent:0;text-align:start;text-decoration:none;text-decoration-line:none;text-decoration-style:solid;text-decoration-color:#000;letter-spacing:normal;word-spacing:normal;text-transform:none;writing-mode:lr-tb;direction:ltr;text-orientation:mixed;dominant-baseline:auto;baseline-shift:baseline;text-anchor:start;white-space:normal;shape-padding:0;clip-rule:nonzero;display:inline;overflow:visible;visibility:visible;opacity:1;isolation:auto;mix-blend-mode:normal;color-interpolation:sRGB;color-interpolation-filters:linearRGB;solid-color:#000;solid-opacity:1;vector-effect:none;fill:#fff;fill-opacity:1;fill-rule:evenodd;stroke:none;stroke-width:2.99984193;stroke-linecap:round;stroke-linejoin:round;stroke-miterlimit:4;stroke-dasharray:none;stroke-dashoffset:0;stroke-opacity:1;color-rendering:auto;image-rendering:auto;shape-rendering:auto;text-rendering:auto;enable-background:accumulate" id="path2493" d="m 23.999995,7 c -0.35744,0 -0.70382,0.1244 -0.97656,0.3555 l -16.4902395,14 c -1.06568,0.9034 -0.42632,2.6451 0.97071,2.6445 h 2.49609 v 14 c 0,1.1081 0.8919505,2 2.0000005,2 h 5.999999 c 1.10805,0 2,-0.8919 2,-2 V 28 h 8 v 10 c 0,1.1081 0.89195,2 2,2 h 6 c 1.10805,0 2,-0.8919 2,-2 V 24 h 2.5 c 1.39563,-8e-4 2.02835,-1.7491 0.9707,-2.6445 l -16.50586,-14 C 24.695175,7.127 24.353405,7.0011 23.999995,7 Z"/></g></svg>