<svg xmlns="http://www.w3.org/2000/svg" xmlns:svg="http://www.w3.org/2000/svg" id="SVGRoot" width="48" height="48" version="1.1" viewBox="0 0 48 48"><metadata id="metadata2415"/><g id="layer1"><path id="path2737" style="opacity:1;fill:#000;fill-opacity:1;stroke:none;stroke-width:3.2;stroke-linecap:round;stroke-linejoin:round;stroke-miterlimit:4;stroke-dasharray:none;stroke-dashoffset:0;stroke-opacity:1;paint-order:markers fill stroke" d="m 22.822266,4.8203125 c -0.324528,-0.00672 -0.638421,0.1193245 -0.869141,0.3476563 l -6.800781,6.7617192 c -0.471343,0.468037 -0.471179,1.229407 -0.002,1.699218 l 6.802734,6.796875 C 22.709993,21.17901 23.999584,20.643729 24,19.576172 V 14.378906 A 12.8,12.8 0 0 1 36.800781,27.179688 12.8,12.8 0 0 1 24,39.980469 12.8,12.8 0 0 1 11.199219,27.179688 H 8 a 16,16 0 0 0 16,16 16,16 0 0 0 16,-16 16,16 0 0 0 -16,-16 V 6.0195312 c 4.8e-5,-0.6541759 -0.523654,-1.1872187 -1.177734,-1.1992187 z"/></g></svg>