<svg xmlns="http://www.w3.org/2000/svg" xmlns:svg="http://www.w3.org/2000/svg" id="SVGRoot" width="64" height="64" version="1.1" viewBox="0 0 64 64"><metadata id="metadata7681"/><g id="layer1" transform="translate(7.9999428,8.0000574)"><circle style="opacity:1;fill:#000;fill-opacity:1;stroke:none;stroke-width:3.84306884;stroke-linecap:round;stroke-linejoin:round;stroke-miterlimit:4;stroke-dasharray:none;stroke-dashoffset:0;stroke-opacity:1;paint-order:markers fill stroke" id="circle2268" cx="24" cy="24" r="32"/><path id="path8226-5" d="m 14.000058,12.000034 c -1.1046,0 -2,0.8954 -2,2 0.001,0.5368 0.21776,1.0505 0.60156,1.4257 l -0.0195,0.019 5.74609,5.7461 2.82813,-2.8281 -5.57422,-5.5742 c -0.3778,-0.4942 -0.96394,-0.7844 -1.58594,-0.7852 z m 15,0 c -0.8902,3e-4 -1.33301,1.077 -0.70703,1.707 l 1.58789,1.5879 -17.29492,17.291 c -0.362,0.3618 -0.58594,0.8619 -0.58594,1.4141 0,1.1046 0.8954,2 2,2 0.5524,0 1.05226,-0.224 1.41406,-0.586 l 17.29492,-17.291 1.58399,1.584 c 0.64659,0.6259 1.70858,0.1832 1.70703,-0.707 v -7 z m 0.64062,14.8398 -2.82812,2.8281 3.05273,3.0528 -1.57226,1.5722 c -0.62591,0.6466 -0.18318,1.7086 0.70703,1.7071 h 7 v -7 c -3.4e-4,-0.8902 -1.07699,-1.333 -1.70703,-0.7071 l -1.59961,1.5996 z" style="color:#000;font-style:normal;font-variant:normal;font-weight:400;font-stretch:normal;font-size:medium;line-height:normal;font-family:sans-serif;font-variant-ligatures:normal;font-variant-position:normal;font-variant-caps:normal;font-variant-numeric:normal;font-variant-alternates:normal;font-feature-settings:normal;text-indent:0;text-align:start;text-decoration:none;text-decoration-line:none;text-decoration-style:solid;text-decoration-color:#000;letter-spacing:normal;word-spacing:normal;text-transform:none;writing-mode:lr-tb;direction:ltr;text-orientation:mixed;dominant-baseline:auto;baseline-shift:baseline;text-anchor:start;white-space:normal;shape-padding:0;clip-rule:nonzero;display:inline;overflow:visible;visibility:visible;opacity:1;isolation:auto;mix-blend-mode:normal;color-interpolation:sRGB;color-interpolation-filters:linearRGB;solid-color:#000;solid-opacity:1;vector-effect:none;fill:#fff;fill-opacity:1;fill-rule:evenodd;stroke:none;stroke-width:4;stroke-linecap:butt;stroke-linejoin:miter;stroke-miterlimit:4;stroke-dasharray:none;stroke-dashoffset:0;stroke-opacity:1;color-rendering:auto;image-rendering:auto;shape-rendering:auto;text-rendering:auto;enable-background:accumulate"/></g></svg>