<svg xmlns="http://www.w3.org/2000/svg" xmlns:svg="http://www.w3.org/2000/svg" id="SVGRoot" width="24" height="24" version="1.1" viewBox="0 0 24 24"><metadata id="metadata835"/><g id="layer1"><path id="path4215" style="fill:#000;stroke-width:1" d="M 17.4443,2.7089271 C 17.2105,2.7372271 17,2.9286571 17,3.2099071 v 1.79004 H 7.5 l 2,2 H 17 v 1.79004 c 0,0.45 0.5396,0.66961 0.8496,0.34961 l 2.7901,-2.79004 c 0.1999,-0.2 0.1999,-0.50996 0,-0.70996 l -2.7901,-2.79004 c -0.1162,-0.11625 -0.265,-0.15762 -0.4053,-0.14063 z M 14.5,16.999937 H 7 v -1.79004 c 0,-0.28125 -0.2105,-0.47228 -0.4443,-0.49804 -0.1403,-0.0155 -0.289,0.0284 -0.4053,0.14843 l -2.79,2.79004 c -0.2,0.2 -0.2,0.50996 0,0.70996 l 2.79,2.79004 c 0.31,0.31 0.8496,0.0897 0.8496,-0.36035 v -1.79004 h 9.5 l 3.25,3.25 1.25,-1.25 -18,-17.9999899 -1.25,1.25 3.25,3.25 v 2.5 c 0,0.5499999 0.45,0.9999999 1,0.9999999 0.55,0 1,-0.45 1,-0.9999999 v -0.5 l 1,0.9999999 v 4.49999 h 1 v -2 h 1.5 v 2 h 1 v -1 z m 1.5,-3.5 v -0.5 c 0,-0.55225 -0.4477,-0.99999 -1,-0.99999 0.5523,0 1,-0.4477 1,-1 V 9.9999471 c 0,-0.55226 -0.4496,-1.04615 -1,-1 h -2.5 v 1 l 1,0.9999999 V 9.9999471 H 15 v 1.4999999 h -1 z m -7,-1.99999 0.5,0.5 H 9 Z m 9,1.49999 c -0.55,0 -1,0.45 -1,1 v 0.5 l 2,2 v -2.5 c 0,-0.55 -0.45,-1 -1,-1 z"/></g></svg>