<svg xmlns="http://www.w3.org/2000/svg" xmlns:svg="http://www.w3.org/2000/svg" id="SVGRoot" width="48" height="48" version="1.1" viewBox="0 0 48 48"><metadata id="metadata7681"/><g id="layer1"><path style="opacity:1;fill:#000;fill-opacity:1;stroke:none;stroke-width:.75590551;stroke-linecap:round;stroke-linejoin:round;stroke-miterlimit:4;stroke-dasharray:none;stroke-dashoffset:0;stroke-opacity:1;paint-order:markers fill stroke" id="rect1753" d="m 15,6 c -1.662,0 -3,1.338 -3,3 v 24 c 0,1.662 1.338,3 3,3 h 24 c 1.662,0 3,-1.338 3,-3 V 9 C 42,7.338 40.662,6 39,6 Z m 0,3 H 39 V 33 H 15 Z m -9,4 v 26 c 0,1.65685 1.3431,3 3,3 H 35 V 39 H 9 V 13 Z m 21,0 c -1.108,0 -2,0.892 -2,2 v 4 h -4 c -1.108,0 -2,0.892 -2,2 0,1.108 0.892,2 2,2 h 4 v 4 c 0,1.108 0.892,2 2,2 1.108,0 2,-0.892 2,-2 v -4 h 4 c 1.108,0 2,-0.892 2,-2 0,-1.108 -0.892,-2 -2,-2 h -4 v -4 c 0,-1.108 -0.892,-2 -2,-2 z"/></g></svg>