<svg xmlns="http://www.w3.org/2000/svg" xmlns:svg="http://www.w3.org/2000/svg" id="SVGRoot" width="48" height="48" version="1.1" viewBox="0 0 48 48"><metadata id="metadata4265"/><g id="layer1"><path id="path3106" style="color:#000;overflow:visible;fill:#000;fill-opacity:1;stroke:none;stroke-width:3.93043;stroke-linecap:butt;stroke-linejoin:round;stroke-miterlimit:4;stroke-dasharray:none" d="M 21.939453 6 C 19.753995 6.0330845 17.99975 7.8142917 18 10 L 18 14 L 18 27.072266 C 16.783892 26.369955 15.404336 26.000143 14 26 C 9.581722 26 6 29.581722 6 34 C 6 38.418278 9.581722 42 14 42 C 18.418278 42 22 38.418278 22 34 L 22 14 L 26.060547 14 C 28.246005 13.966915 30.00025 12.185708 30 10 L 30 6 L 21.939453 6 z M 33.5 25 L 33.126953 27.617188 A 7 7 0 0 0 31.910156 28.320312 L 29.455078 27.333984 L 26.955078 31.666016 L 29.035156 33.298828 A 7 7 0 0 0 29 34 A 7 7 0 0 0 29.035156 34.701172 L 26.955078 36.333984 L 29.455078 40.666016 L 31.910156 39.679688 A 7 7 0 0 0 33.125 40.380859 L 33.5 43 L 38.5 43 L 38.873047 40.382812 A 7 7 0 0 0 40.091797 39.679688 L 42.544922 40.664062 L 45.044922 36.333984 L 42.964844 34.701172 A 7 7 0 0 0 43 34 A 7 7 0 0 0 42.964844 33.298828 L 45.044922 31.666016 L 42.544922 27.333984 L 40.089844 28.320312 A 7 7 0 0 0 38.875 27.619141 L 38.5 25 L 33.5 25 z M 13.939453 30 C 13.959633 29.999847 13.97981 29.999847 14 30 C 16.209139 30 18 31.790861 18 34 C 18 36.209139 16.209139 38 14 38 C 11.790861 38 10 36.209139 10 34 C 9.9997496 31.814292 11.753995 30.033085 13.939453 30 z M 35.947266 31 A 3 3 0 0 1 35.949219 31 A 3 3 0 0 1 36 31 A 3 3 0 0 1 39 34 A 3 3 0 0 1 36 37 A 3 3 0 0 1 33 34 A 3 3 0 0 1 35.947266 31 z"/></g></svg>