<svg xmlns="http://www.w3.org/2000/svg" xmlns:svg="http://www.w3.org/2000/svg" id="SVGRoot" width="48" height="48" version="1.1" viewBox="0 0 48 48"><metadata id="metadata3532"/><g id="layer1"><path id="rect3347" style="color:#000;overflow:visible;fill:#000;stroke:none;stroke-width:4;stroke-linecap:butt;stroke-linejoin:round;stroke-miterlimit:4;stroke-dasharray:none" d="M 9.9003906 12 C 8.8475026 12 8 12.892002 8 14 C 8 15.107998 8.8475026 16 9.9003906 16 L 26.099609 16 C 27.152497 16 28 15.107998 28 14 C 28 12.892002 27.152497 12 26.099609 12 L 9.9003906 12 z M 10 20 C 8.892 20 8 20.892002 8 22 C 8 23.107998 8.892 24 10 24 L 26 24 C 27.108 24 28 23.107998 28 22 C 28 20.892002 27.108 20 26 20 L 10 20 z M 34 20 C 32.892002 20 32 20.892 32 22 L 32 28 L 26 28 C 24.892 28 24 28.892002 24 30 C 24 31.107998 24.892 32 26 32 L 32 32 L 32 38 C 32 39.108 32.892002 40 34 40 C 35.107998 40 36 39.108 36 38 L 36 32 L 42 32 C 43.108 32 44 31.107998 44 30 C 44 28.892002 43.108 28 42 28 L 36 28 L 36 22 C 36 20.892 35.107998 20 34 20 z M 10 28 C 8.892 28 8 28.892 8 30 C 8 31.108 8.892 32 10 32 L 18 32 C 19.108 32 20 31.108 20 30 C 20 28.892 19.108 28 18 28 L 10 28 z"/></g></svg>