<svg xmlns="http://www.w3.org/2000/svg" xmlns:svg="http://www.w3.org/2000/svg" id="svg4682" width="24" height="24" version="1.1"><metadata id="metadata4687"/><g id="layer1" transform="translate(0,-1028.3622)"><path style="color:#000;display:inline;overflow:visible;visibility:visible;opacity:1;fill:#212121;fill-opacity:1;fill-rule:nonzero;stroke:none;stroke-width:1;stroke-linecap:round;stroke-linejoin:round;stroke-miterlimit:3.70000005;stroke-dasharray:none;stroke-dashoffset:0;stroke-opacity:1;marker:none;enable-background:accumulate" id="path6154" d="m 7,1033.3622 c -1.108,0 -2,0.892 -2,2 v 7 c 0,1.108 0.892,2 2,2 h 4.3594 l -0.8438,3.3789 c -0.1212,0.4908 0.4793,0.8309 0.8379,0.4746 l 3.8535,-3.8535 H 17 c 1.108,0 2,-0.892 2,-2 v -7 c 0,-1.108 -0.892,-2 -2,-2 z m 0,2 h 1.6504 v 1.5 H 7 Z m 3,0 h 7 v 1.5 h -7 z m -3,2.5 h 6.5 v 1.5 H 7 Z m 8,0 h 2 v 1.5 h -2 z m -8,2.5 h 4.5 v 1.5 H 7 Z m 6,0 h 4 v 1.5 h -4 z"/></g></svg>