<svg xmlns="http://www.w3.org/2000/svg" xmlns:svg="http://www.w3.org/2000/svg" id="SVGRoot" width="48" height="48" version="1.1" viewBox="0 0 48 48"><metadata id="metadata7681"/><g id="layer1"><path style="fill:#000;fill-opacity:1;fill-rule:evenodd;stroke:none;stroke-width:1px;stroke-linecap:butt;stroke-linejoin:miter;stroke-opacity:1" id="path18387" d="m 37,36 c 1.662,0 3,-1.337998 3,-3 V 15 c 0,-1.662002 -1.338,-3 -3,-3 H 18 17.6035 c -0.9988,7.9e-5 -1.931,0.497938 -2.4883,1.326172 L 8,24 15.1152,34.673828 C 15.6725,35.502068 16.6047,35.99992 17.6035,36 H 18 Z m -15,-19 5,5 5,-5 2,2 -5,5 5,5 -2,2 -5,-5 -5,5 -2,-2 5,-5 -5,-5 z"/></g></svg>