<svg xmlns="http://www.w3.org/2000/svg" xmlns:svg="http://www.w3.org/2000/svg" id="svg4682" width="24" height="24" version="1.1"><metadata id="metadata4687"/><g id="layer1" transform="translate(0,-1028.3622)"><path style="color:#000;display:inline;overflow:visible;visibility:visible;fill:#757575;fill-opacity:1;fill-rule:nonzero;stroke:none;stroke-width:1.11111116;marker:none;enable-background:accumulate" id="path8198" d="m 4.2222222,1032.5844 c -1.2311111,0 -2.0198333,1.0079 -2.2222222,2.2223 v 1.1111 10 c 0,1.2311 0.9911111,2.2222 2.2222222,2.2222 H 19.777778 C 21.008889,1048.14 22,1047.1489 22,1045.9178 v -8.8889 c 0,-1.2311 -0.991111,-2.2222 -2.222222,-2.2222 H 12 l -2.2222222,-2.2223 z m 12.9513888,3.3334 0.371093,1.0482 -3.320312,1.174 h 4.442275 c 0.615555,0 1.111111,0.4956 1.111111,1.1111 v 5.5556 c 0,0.6155 -0.495556,1.1111 -1.111111,1.1111 h -7.777778 c -0.615556,0 -1.1111112,-0.4956 -1.1111112,-1.1111 v -5.5556 c 0,-0.6155 0.4955552,-1.1111 1.1111112,-1.1111 z m -6.284722,3.3333 v 2.2222 h 5.555555 v -1.1111 h 1.111112 v 1.1111 h 1.111111 v -2.2222 z M 12,1042.5844 a 1.1111111,1.1111111 0 0 0 -1.111111,1.1112 A 1.1111111,1.1111111 0 0 0 12,1044.8067 1.1111111,1.1111111 0 0 0 13.111111,1043.6956 1.1111111,1.1111111 0 0 0 12,1042.5844 Z"/></g></svg>