<svg xmlns="http://www.w3.org/2000/svg" xmlns:svg="http://www.w3.org/2000/svg" id="svg6" width="96" height="96" version="1.1" viewBox="0 0 96 96"><metadata id="metadata12"/><path id="path2" d="M 0,72 H 24 V 96 H 0 Z" style="fill:none"/><path id="path4" d="m 84.818182,23.454546 h -31.05 L 67.227273,9.995455 64.363636,7.090909 48,23.454546 31.636364,7.090909 l -2.904546,2.904546 13.5,13.459091 h -31.05 C 6.6818182,23.454546 3,27.095455 3,31.636364 v 49.090909 c 0,4.5 3.6818182,8.181818 8.181818,8.181818 h 73.636364 c 4.5,0 8.181818,-3.681818 8.181818,-8.181818 V 31.636364 c 0,-4.540909 -3.681818,-8.181818 -8.181818,-8.181818 z m 0,57.272727 H 11.181818 V 31.636364 H 84.818182 Z M 35.727273,39.818182 V 72.545455 L 64.363636,56.181818 Z" style="stroke-width:4.090909;fill:#757575;fill-opacity:1"/></svg>