<svg xmlns="http://www.w3.org/2000/svg" xmlns:svg="http://www.w3.org/2000/svg" id="svg4682" width="24" height="24" version="1.1"><metadata id="metadata4687"/><g id="layer1" transform="translate(0,-1028.3622)"><path style="fill:#212121;fill-opacity:1;fill-rule:evenodd;stroke:none;stroke-width:1.16660285px;stroke-linecap:butt;stroke-linejoin:miter;stroke-opacity:1" id="path6420" d="m 5,1031.3622 v 2 H 3 v 2 h 2 v 10 c 0,1.108 0.892,2 2,2 h 10 v 2 h 2 v -2 h 2 v -2 h -2 v -10 c 0,-1.108 -0.89199,-2 -2,-2 H 7 v -2 z m 2,4 h 10 v 10 H 7 Z m 3.222656,2.0879 c -0.144055,0.038 -0.278871,0.2703 -0.410156,0.5801 l -0.875,2.332 c 0,0 -0.4375,1.1666 -0.4375,1.75 v 0.584 c 0,0 -6.44e-4,1.166 1.166016,1.166 h 4.667968 c 0,0 1.166016,5e-4 1.166016,-1.166 v -0.584 c 0,-0.5834 0,-0.5835 -0.875,-1.75 0,0 -0.503,-0.6914 -0.875,-0.6914 -0.37202,0 -0.875,0.6914 -0.875,0.6914 l -0.875,1.166 -1.3125,-3.498 c -0.167495,-0.4615 -0.320789,-0.618 -0.464844,-0.5801 z"/></g></svg>