<svg xmlns="http://www.w3.org/2000/svg" xmlns:svg="http://www.w3.org/2000/svg" id="SVGRoot" width="40" height="40" version="1.1" viewBox="0 0 40 40"><metadata id="metadata7681"/><g id="layer1" transform="translate(0,-8)"><path style="opacity:1;fill:#000;fill-opacity:1;stroke:none;stroke-width:5.12989235;stroke-linecap:round;stroke-linejoin:miter;stroke-miterlimit:4;stroke-dasharray:none;stroke-dashoffset:0;stroke-opacity:1;paint-order:markers fill stroke" id="rect1966" d="M 13.5,14 A 2.500005,2.500005 0 0 0 11,16.5 v 18 a 2.500005,2.500005 0 0 0 2.5,2.5 h 18 A 2.500005,2.500005 0 0 0 34,34.5 v -18 A 2.500005,2.500005 0 0 0 31.5,14 Z m 0,2.5 h 18 v 18 h -18 z M 6,20 V 39.5 A 2.500005,2.500005 0 0 0 8.5,42 H 28 V 39.5 H 8.5 V 20 Z m 11.445312,0.445312 C 16.644813,20.445313 16,21.088392 16,21.888672 v 7.222656 c 0,0.80025 0.644813,1.44336 1.445312,1.44336 H 27.554688 C 28.355187,30.554687 29,29.911578 29,29.111328 v -8.666016 h -2.527344 l 1.082032,2.166016 h -2.166016 l -1.083984,-2.166016 h -1.082032 l 1.082032,2.166016 h -2.166016 l -1.083984,-2.166016 h -1.082032 l 1.082032,2.166016 h -2.166016 l -1.083984,-2.166016 z"/></g></svg>