<svg xmlns="http://www.w3.org/2000/svg" xmlns:svg="http://www.w3.org/2000/svg" id="SVGRoot" width="40" height="40" version="1.1" viewBox="0 0 40 40"><metadata id="metadata7681"/><g id="layer1" transform="translate(0,-8)"><path style="opacity:1;fill:#000;fill-opacity:1;stroke:none;stroke-width:.65463334;stroke-linejoin:miter;stroke-miterlimit:4;stroke-dasharray:none;stroke-opacity:1" id="rect1802" d="M 11.5,20.5 A 7.4999566,7.4999566 0 0 0 4,28 7.4999566,7.4999566 0 0 0 11.5,35.5 H 18 v -3 H 11.5 A 4.499974,4.499974 0 0 1 7,28 4.499974,4.499974 0 0 1 11.5,23.5 H 18 v -3 z m 10.5,0 v 3 h 6.5 A 4.499974,4.499974 0 0 1 33,28 4.499974,4.499974 0 0 1 28.5,32.5 H 22 v 3 h 6.5 A 7.4999566,7.4999566 0 0 0 36,28 7.4999566,7.4999566 0 0 0 28.5,20.5 Z m -8,6 v 3 h 12 v -3 z"/></g></svg>