<svg xmlns="http://www.w3.org/2000/svg" xmlns:svg="http://www.w3.org/2000/svg" id="SVGRoot" width="40" height="40" version="1.1" viewBox="0 0 40 40"><metadata id="metadata7681"/><g id="layer1" transform="translate(0,-8)"><path style="opacity:1;fill:#000;fill-opacity:1;stroke:#000;stroke-width:0;stroke-linecap:round;stroke-linejoin:round;stroke-miterlimit:4;stroke-dasharray:none;stroke-opacity:1" id="circle7974" d="m 28,15 a 4,4 0 0 0 -4,4 4,4 0 0 0 0.03711,0.507812 l -9.544922,5.369141 A 4,4 0 0 0 12,24 a 4,4 0 0 0 -4,4 4,4 0 0 0 4,4 4,4 0 0 0 2.496093,-0.875 l 9.541016,5.367188 A 4,4 0 0 0 24,37 a 4,4 0 0 0 4,4 4,4 0 0 0 4,-4 4,4 0 0 0 -4,-4 4,4 0 0 0 -2.496094,0.875 L 15.96289,28.509766 A 4,4 0 0 0 16,28 4,4 0 0 0 15.96289,27.492188 l 9.544922,-5.369141 A 4,4 0 0 0 28,23 4,4 0 0 0 32,19 4,4 0 0 0 28,15 Z"/></g></svg>