<svg xmlns="http://www.w3.org/2000/svg" xmlns:svg="http://www.w3.org/2000/svg" id="SVGRoot" width="40" height="40" version="1.1" viewBox="0 0 40 40"><metadata id="metadata7681"/><g id="layer1" transform="translate(0,-8)"><path style="color:#000;font-style:normal;font-variant:normal;font-weight:400;font-stretch:normal;font-size:medium;line-height:normal;font-family:sans-serif;font-variant-ligatures:normal;font-variant-position:normal;font-variant-caps:normal;font-variant-numeric:normal;font-variant-alternates:normal;font-feature-settings:normal;text-indent:0;text-align:start;text-decoration:none;text-decoration-line:none;text-decoration-style:solid;text-decoration-color:#000;letter-spacing:normal;word-spacing:normal;text-transform:none;writing-mode:lr-tb;direction:ltr;text-orientation:mixed;dominant-baseline:auto;baseline-shift:baseline;text-anchor:start;white-space:normal;shape-padding:0;clip-rule:nonzero;display:inline;overflow:visible;visibility:visible;opacity:1;isolation:auto;mix-blend-mode:normal;color-interpolation:sRGB;color-interpolation-filters:linearRGB;solid-color:#000;solid-opacity:1;vector-effect:none;fill:#000;fill-opacity:1;fill-rule:nonzero;stroke:none;stroke-width:2;stroke-linecap:butt;stroke-linejoin:round;stroke-miterlimit:4;stroke-dasharray:none;stroke-dashoffset:0;stroke-opacity:1;marker:none;color-rendering:auto;image-rendering:auto;shape-rendering:auto;text-rendering:auto;enable-background:accumulate" id="path8013" d="m 9,15.999924 c -0.636412,0 -1.000153,0.436882 -1,1 v 14 c 9.34e-4,0.771472 0.855833,1.249802 1.503906,0.863281 l 12,-7 c 0.661465,-0.375999 0.661532,-1.329672 0,-1.726562 l -12,-7 C 9.359045,16.051793 9.171854,15.999924 9,15.999924 Z m 14,14 c -0.5315,0 -0.9999,0.40105 -1,1 v 8 c 0,0.79855 0.842688,1.271591 1.554688,0.832031 L 30,35.53508 v 3.464844 c 0,0.554 0.446,1 1,1 0.554,0 1,-0.446 1,-1 v -8 c 0,-0.554 -0.449906,-1 -1.003906,-1 -0.554,0 -0.996094,0.446 -0.996094,1 v 3.464844 L 23.554688,30.167893 C 23.388488,30.057173 23.1857,29.999924 23,29.999924 Z"/></g></svg>