<svg xmlns="http://www.w3.org/2000/svg" xmlns:svg="http://www.w3.org/2000/svg" id="SVGRoot" width="40" height="40" version="1.1" viewBox="0 0 40 40"><metadata id="metadata7681"/><g id="layer1" transform="translate(0,-8)"><path style="color:#000;display:inline;overflow:visible;visibility:visible;opacity:1;fill:#000;fill-opacity:1;fill-rule:nonzero;stroke:none;stroke-width:15;stroke-linecap:round;stroke-linejoin:round;stroke-miterlimit:4;stroke-dasharray:none;stroke-dashoffset:0;stroke-opacity:1;marker:none;enable-background:accumulate" id="path1762" d="M 20,16 A 12,12 0 0 0 8,28 12,12 0 0 0 20,40 12,12 0 0 0 32,28 12,12 0 0 0 20,16 Z m 0,3 a 9,9 0 0 1 9,9 9,9 0 0 1 -9,9 9,9 0 0 1 -9,-9 9,9 0 0 1 9,-9 z m 0,3 A 1.5,1.5 0 0 0 18.5,23.5 1.5,1.5 0 0 0 20,25 1.5,1.5 0 0 0 21.5,23.5 1.5,1.5 0 0 0 20,22 Z m 0,4.5 c -0.830998,0 -1.5,0.669002 -1.5,1.5 v 4.5 c 0,0.830998 0.669002,1.5 1.5,1.5 0.830998,0 1.5,-0.669002 1.5,-1.5 V 28 c 0,-0.830998 -0.669002,-1.5 -1.5,-1.5 z"/></g></svg>