<svg xmlns="http://www.w3.org/2000/svg" xmlns:svg="http://www.w3.org/2000/svg" id="SVGRoot" width="40" height="40" version="1.1" viewBox="0 0 40 40"><metadata id="metadata7681"/><g id="layer1" transform="translate(0,-8)"><path style="opacity:1;fill:#000;fill-opacity:1;stroke:none;stroke-width:4;stroke-linecap:round;stroke-linejoin:round;stroke-miterlimit:4;stroke-dasharray:none;stroke-opacity:1" id="rect1099" d="m 8,16 v 3 h 20 v -3 z m 0,6 v 3 h 20 v -3 z m 0,6 v 3 h 12 v -3 z m 15.5,2 c -0.8284,0 -1.5,0.67157 -1.5,1.5 0,0.39017 0.152,0.76499 0.4238,1.04492 L 24.8789,35 22.4395,37.43945 C 22.1581,37.72071 22.0001,38.10219 22,38.5 c 0,0.82842 0.6716,1.5 1.5,1.5 0.3902,0 0.765,-0.15203 1.0449,-0.42383 L 27,37.12109 29.4395,39.56054 C 29.7207,39.84186 30.1022,39.99994 30.5,40 31.3284,40 32,39.32842 32,38.5 32,38.10982 31.848,37.735 31.5762,37.45507 L 29.1211,35 31.5605,32.56054 C 31.8419,32.27929 31.9999,31.8978 32,31.5 32,30.67157 31.3284,30 30.5,30 c -0.3902,-10e-6 -0.765,0.15203 -1.0449,0.42382 L 27,32.8789 24.5605,30.43945 C 24.2793,30.15813 23.8978,30.00006 23.5,30 Z"/></g></svg>