<svg xmlns="http://www.w3.org/2000/svg" xmlns:svg="http://www.w3.org/2000/svg" id="SVGRoot" width="40" height="40" version="1.1" viewBox="0 0 40 40"><metadata id="metadata7681"/><g id="layer1" transform="translate(0,-8)"><path style="opacity:1;fill:#000;fill-opacity:1;stroke:none;stroke-width:4;stroke-linecap:round;stroke-linejoin:round;stroke-miterlimit:4;stroke-dasharray:none;stroke-opacity:1" id="rect975" d="m 9.5,19.999714 c -0.831,0 -1.5,0.669 -1.5,1.5 v 13 c 0,0.831 0.669,1.5 1.5,1.5 0.831,0 1.5,-0.669 1.5,-1.5 v -13 c 0,-0.831 -0.669,-1.5 -1.5,-1.5 z m 5.527344,0 c -0.562959,0 -1.027497,0.436882 -1.027344,1 v 14 c 5.04e-4,0.771488 0.837468,1.250362 1.503906,0.863281 l 12,-7 c 0.661452,-0.380971 0.661483,-1.335072 0,-1.726562 l -12,-7 c -0.144861,-0.08485 -0.311607,-0.136719 -0.476562,-0.136719 z"/></g></svg>