<svg xmlns="http://www.w3.org/2000/svg" xmlns:svg="http://www.w3.org/2000/svg" id="SVGRoot" width="40" height="40" version="1.1" viewBox="0 0 40 40"><metadata id="metadata7681"/><g id="layer1" transform="translate(0,-8)"><path id="rect5988" style="fill:#000;stroke:none;stroke-width:2;stroke-linecap:round;stroke-linejoin:round;stroke-miterlimit:4;stroke-dasharray:none;paint-order:markers fill stroke" d="M 13 4 C 11.338 4 10 5.3380024 10 7 L 10 33 C 10 34.661998 11.338 36 13 36 L 27 36 C 28.662 36 30 34.661998 30 33 L 30 26 L 27 26 L 27 28 L 13 28 L 13 12 L 27 12 L 27 14 L 30 14 L 30 7 C 30 5.3380024 28.662 4 27 4 L 13 4 z M 13 7 L 27 7 L 27 9 L 13 9 L 13 7 z M 33 13 L 32.271484 14.771484 L 30.5 15.5 L 32.271484 16.228516 L 33 18 L 33.728516 16.228516 L 35.5 15.5 L 33.728516 14.771484 L 33 13 z M 25 15 L 23.5 18.5 L 20 20 L 23.5 21.5 L 25 25 L 26.5 21.5 L 30 20 L 26.5 18.5 L 25 15 z M 33 22 L 32.271484 23.771484 L 30.5 24.5 L 32.271484 25.228516 L 33 27 L 33.728516 25.228516 L 35.5 24.5 L 33.728516 23.771484 L 33 22 z M 13 31 L 27 31 L 27 33 L 13 33 L 13 31 z" transform="translate(0,8)"/></g></svg>