<svg xmlns="http://www.w3.org/2000/svg" xmlns:svg="http://www.w3.org/2000/svg" id="SVGRoot" width="40" height="40" version="1.1" viewBox="0 0 40 40"><metadata id="metadata7681"/><g id="layer1" transform="translate(0,-8)"><path style="color:#000;font-style:normal;font-variant:normal;font-weight:400;font-stretch:normal;font-size:medium;line-height:normal;font-family:sans-serif;font-variant-ligatures:normal;font-variant-position:normal;font-variant-caps:normal;font-variant-numeric:normal;font-variant-alternates:normal;font-feature-settings:normal;text-indent:0;text-align:start;text-decoration:none;text-decoration-line:none;text-decoration-style:solid;text-decoration-color:#000;letter-spacing:normal;word-spacing:normal;text-transform:none;writing-mode:lr-tb;direction:ltr;text-orientation:mixed;dominant-baseline:auto;baseline-shift:baseline;text-anchor:start;white-space:normal;shape-padding:0;clip-rule:nonzero;display:inline;overflow:visible;visibility:visible;opacity:1;isolation:auto;mix-blend-mode:normal;color-interpolation:sRGB;color-interpolation-filters:linearRGB;solid-color:#000;solid-opacity:1;vector-effect:none;fill:#000;fill-opacity:1;fill-rule:nonzero;stroke:none;stroke-width:2;stroke-linecap:round;stroke-linejoin:round;stroke-miterlimit:4;stroke-dasharray:none;stroke-dashoffset:0;stroke-opacity:1;marker:none;color-rendering:auto;image-rendering:auto;shape-rendering:auto;text-rendering:auto;enable-background:accumulate" id="path7964" d="M 9.027344,16 C 8.464435,15.98466 7.999847,16.436882 8,17 v 14 c 5.03e-4,0.771519 0.837433,1.251938 1.503906,0.863281 l 12,-7 c 0.660238,-0.386164 0.660238,-1.340398 0,-1.726562 l -12,-7 C 9.359045,16.051869 9.195155,16.004852 9.027344,16 Z M 26.5,29 A 1.5,1.5 0 0 0 25,30.5 V 33 H 22.5 A 1.5,1.5 0 0 0 21,34.5 1.5,1.5 0 0 0 22.5,36 H 25 v 2.5 A 1.5,1.5 0 0 0 26.5,40 1.5,1.5 0 0 0 28,38.5 V 36 h 2.5 A 1.5,1.5 0 0 0 32,34.5 1.5,1.5 0 0 0 30.5,33 H 28 V 30.5 A 1.5,1.5 0 0 0 26.5,29 Z"/></g></svg>