<svg xmlns="http://www.w3.org/2000/svg" xmlns:svg="http://www.w3.org/2000/svg" id="SVGRoot" width="40" height="40" version="1.1" viewBox="0 0 40 40"><metadata id="metadata7681"/><g id="layer1" transform="translate(0,-8)"><path style="opacity:1;fill:#000;fill-opacity:1;stroke:none;stroke-width:5.12989235;stroke-linecap:round;stroke-linejoin:miter;stroke-miterlimit:4;stroke-dasharray:none;stroke-dashoffset:0;stroke-opacity:1;paint-order:markers fill stroke" id="path2024" d="M 13.5,14 A 2.500005,2.500005 0 0 0 11,16.5 v 18 a 2.500005,2.500005 0 0 0 2.5,2.5 h 18 A 2.500005,2.500005 0 0 0 34,34.5 v -18 A 2.500005,2.500005 0 0 0 31.5,14 Z m 0,2.5 h 18 v 18 h -18 z m 9,3 C 21.669,19.5 21,20.169 21,21 v 3 h -3 c -0.831,0 -1.5,0.669 -1.5,1.5 0,0.831 0.669,1.5 1.5,1.5 h 3 v 3 c 0,0.831 0.669,1.5 1.5,1.5 0.831,0 1.5,-0.669 1.5,-1.5 v -3 h 3 c 0.831,0 1.5,-0.669 1.5,-1.5 C 28.5,24.669 27.831,24 27,24 h -3 v -3 c 0,-0.831 -0.669,-1.5 -1.5,-1.5 z M 6,20 V 39.5 A 2.500005,2.500005 0 0 0 8.5,42 H 28 V 39.5 H 8.5 V 20 Z"/></g></svg>