<svg xmlns="http://www.w3.org/2000/svg" xmlns:svg="http://www.w3.org/2000/svg" id="SVGRoot" width="40" height="40" version="1.1" viewBox="0 0 40 40"><metadata id="metadata7681"/><g id="layer1" transform="translate(0,-8)"><path id="path4-04" d="M 31.49,15.985 C 27.53,13.285 22.64,14.545 20,17.635 17.36,14.545 12.47,13.27 8.51,15.985 6.41,17.425 5.09,19.855 5,22.42 4.79,28.24 9.95,32.905 17.825,40.06 l 0.15,0.135 c 1.14,1.035 2.895,1.035 4.035,-0.015 l 0.165,-0.15 C 30.05,32.89 35.195,28.225 35,22.405 c -0.09,-2.55 -1.41,-4.98 -3.51,-6.42 z M 20.15,37.825 20,37.975 19.85,37.825 C 12.71,31.36 8,27.085 8,22.75 c 0,-3 2.25,-5.25 5.25,-5.25 2.31,0 4.56,1.485 5.355,3.54 h 2.805 c 0.78,-2.055 3.03,-3.54 5.34,-3.54 3,0 5.25,2.25 5.25,5.25 0,4.335 -4.71,8.61 -11.85,15.075 z" style="fill:#000;stroke-width:2"/></g></svg>