<svg xmlns="http://www.w3.org/2000/svg" xmlns:svg="http://www.w3.org/2000/svg" id="SVGRoot" width="40" height="40" version="1.1" viewBox="0 0 40 40"><metadata id="metadata7681"/><g id="layer1" transform="translate(0,-8)"><path id="path2607" style="color:#000;font-style:normal;font-variant:normal;font-weight:400;font-stretch:normal;font-size:medium;line-height:normal;font-family:sans-serif;font-variant-ligatures:normal;font-variant-position:normal;font-variant-caps:normal;font-variant-numeric:normal;font-variant-alternates:normal;font-feature-settings:normal;text-indent:0;text-align:start;text-decoration:none;text-decoration-line:none;text-decoration-style:solid;text-decoration-color:#000;letter-spacing:normal;word-spacing:normal;text-transform:none;writing-mode:lr-tb;direction:ltr;text-orientation:mixed;dominant-baseline:auto;baseline-shift:baseline;text-anchor:start;white-space:normal;shape-padding:0;clip-rule:nonzero;display:inline;overflow:visible;visibility:visible;opacity:1;isolation:auto;mix-blend-mode:normal;color-interpolation:sRGB;color-interpolation-filters:linearRGB;solid-color:#000;solid-opacity:1;vector-effect:none;fill:#000;fill-opacity:1;fill-rule:evenodd;stroke:none;stroke-width:4;stroke-linecap:butt;stroke-linejoin:miter;stroke-miterlimit:4;stroke-dasharray:none;stroke-dashoffset:0;stroke-opacity:1;color-rendering:auto;image-rendering:auto;shape-rendering:auto;text-rendering:auto;enable-background:accumulate" d="m 9.502,15.999996 c -0.3835,0 -0.7668,0.1476 -1.0606,0.44141 -0.5876,0.5876 -0.5876,1.53348 0,2.12109 l 7.3164,7.31641 2.1211,-2.1211 -7.3164,-7.3164 c -0.2938,-0.29381 -0.6771,-0.44141 -1.0605,-0.44141 z m 15.498,0 c -0.8902,3.4e-4 -1.333,1.07699 -0.707,1.70703 l 1.9394,1.93945 -17.791,17.79102 c -0.5876,0.58761 -0.5876,1.53349 0,2.12109 0.5876,0.58761 1.5335,0.58761 2.1211,0 l 17.791,-17.79101 1.9395,1.93945 c 0.6466,0.62591 1.7086,0.18318 1.707,-0.70703 v -7 z m -0.7578,14.12109 -2.1211,2.1211 4.1113,4.11133 -1.9394,1.93945 c -0.6259,0.64659 -0.1832,1.70858 0.707,1.70703 h 7 v -7 c -3e-4,-0.8902 -1.077,-1.33301 -1.707,-0.70703 l -1.9395,1.93945 z"/></g></svg>