<svg xmlns="http://www.w3.org/2000/svg" xmlns:svg="http://www.w3.org/2000/svg" id="SVGRoot" width="40" height="40" version="1.1" viewBox="0 0 40 40"><metadata id="metadata7681"/><g id="layer1" transform="translate(0,-8)"><path style="fill:#000;fill-opacity:1;stroke-width:.05578091" id="path7928" d="m 20,14.117188 c -0.55782,0 -0.923182,0.248683 -1.226562,0.558593 -0.419481,0.42849 -0.78125,1.673828 -0.78125,1.673828 L 17.544922,17.6875 c 1.78503,0.89247 3.060016,0.97591 4.910156,0 l -0.447266,-1.337891 c 0,0 -0.36177,-1.245338 -0.78125,-1.673828 C 20.923192,14.365871 20.55781,14.117187 20,14.117188 Z m -4.015625,8.255859 -1.785156,5.355469 c 1.78499,1.78501 3.728951,2.230468 5.800781,2.230468 2.07183,0 4.015771,-0.445458 5.800781,-2.230468 L 24.015625,22.373047 C 22.676895,23.377107 21.42977,23.878906 20,23.878906 c -1.42977,0 -2.676865,-0.501799 -4.015625,-1.505859 z m -4.574219,8.033203 c -0.5933,0 -1.156593,0.518784 -1.339844,1.115234 l -1.951171,6.69336 C 7.858281,39.109264 7.950634,40 9.177734,40 H 20 v -4.462891 c -2.51666,-7.2e-4 -5.343335,-0.694385 -7.140625,-2.453125 -0.33659,-0.32936 -0.22323,-0.670413 0,-1.339843 0.14879,-0.44623 0.445313,-1.337891 0.445313,-1.337891 z M 28,33 a 1.5,1.5 0 0 0 -1.5,1.5 V 37 H 24 A 1.5,1.5 0 0 0 22.5,38.5 1.5,1.5 0 0 0 24,40 h 2.5 v 2.5 A 1.5,1.5 0 0 0 28,44 1.5,1.5 0 0 0 29.5,42.5 V 40 H 32 A 1.5,1.5 0 0 0 33.5,38.5 1.5,1.5 0 0 0 32,37 H 29.5 V 34.5 A 1.5,1.5 0 0 0 28,33 Z"/></g></svg>