<svg xmlns="http://www.w3.org/2000/svg" xmlns:svg="http://www.w3.org/2000/svg" id="SVGRoot" width="40" height="40" version="1.1" viewBox="0 0 40 40"><metadata id="metadata7681"/><g id="layer1" transform="translate(0,-8)"><path style="color:#000;font-style:normal;font-variant:normal;font-weight:400;font-stretch:normal;font-size:medium;line-height:normal;font-family:sans-serif;font-variant-ligatures:normal;font-variant-position:normal;font-variant-caps:normal;font-variant-numeric:normal;font-variant-alternates:normal;font-feature-settings:normal;text-indent:0;text-align:start;text-decoration:none;text-decoration-line:none;text-decoration-style:solid;text-decoration-color:#000;letter-spacing:normal;word-spacing:normal;text-transform:none;writing-mode:lr-tb;direction:ltr;text-orientation:mixed;dominant-baseline:auto;baseline-shift:baseline;text-anchor:start;white-space:normal;shape-padding:0;clip-rule:nonzero;display:inline;overflow:visible;visibility:visible;opacity:1;isolation:auto;mix-blend-mode:normal;color-interpolation:sRGB;color-interpolation-filters:linearRGB;solid-color:#000;solid-opacity:1;vector-effect:none;fill:#000;fill-opacity:1;fill-rule:nonzero;stroke:none;stroke-width:3;stroke-linecap:round;stroke-linejoin:round;stroke-miterlimit:4;stroke-dasharray:none;stroke-dashoffset:0;stroke-opacity:1;marker:none;paint-order:normal;color-rendering:auto;image-rendering:auto;shape-rendering:auto;text-rendering:auto;enable-background:accumulate" id="path7795" d="M 29.5,16 C 28.6716,16 28,16.67158 28,17.5 v 5.052734 C 27.8355,22.518534 27.668,22.5007 27.5,22.5 26.1193,22.5 25,23.6193 25,25 c 0,1.38072 1.1193,2.5 2.5,2.5 1.3807,0 2.5,-1.11929 2.5,-2.5 v -7 h 0.5 C 31.3284,18 32,17.32842 32,16.5 V 16 Z m -20,3 C 8.671607,19.000083 8.000083,19.671607 8,20.5 8,31.251786 16.748214,40 27.5,40 c 0.828393,-8.3e-5 1.499917,-0.671607 1.5,-1.5 V 34 c -8.3e-5,-0.828393 -0.671607,-1.499917 -1.5,-1.5 -1.179761,-6.49e-4 -2.351656,-0.174623 -3.480469,-0.517578 -0.529923,-0.161849 -1.105911,-0.01842 -1.498047,0.373047 l -2.439453,2.441406 c -2.940193,-1.553112 -5.325745,-3.940583 -6.875,-6.882813 l 2.445313,-2.445312 c 0.392193,-0.392529 0.535681,-0.969487 0.373047,-1.5 C 15.680545,22.84284 15.503952,21.671671 15.5,20.494141 15.496691,19.668037 14.82611,19.000076 14,19 Z"/></g></svg>