<svg xmlns="http://www.w3.org/2000/svg" xmlns:svg="http://www.w3.org/2000/svg" id="SVGRoot" width="40" height="40" version="1.1" viewBox="0 0 40 40"><metadata id="metadata7681"/><g id="layer1" transform="translate(0,-8)"><path id="rect2547" style="vector-effect:none;fill:#000;fill-opacity:1;stroke:none;stroke-width:.755906;stroke-linecap:round;stroke-linejoin:round;stroke-miterlimit:4;stroke-dasharray:none;stroke-dashoffset:0;stroke-opacity:1;paint-order:markers fill stroke" d="M 16.5 6 C 15.6716 6.00008 15.0001 6.67161 15 7.5 L 15 15.5 L 12.5 15.5 C 11.1641 15.50056 10.495153 17.115567 11.439453 18.060547 L 18.939453 25.560547 C 19.525253 26.146037 20.474747 26.146037 21.060547 25.560547 L 28.560547 18.060547 C 29.504847 17.115567 28.8359 15.50056 27.5 15.5 L 25 15.5 L 25 7.5 C 24.9999 6.67161 24.3284 6.00008 23.5 6 L 16.5 6 z M 18 9 L 22 9 L 22 18.5 L 23.878906 18.5 L 20 22.378906 L 16.121094 18.5 L 18 18.5 L 18 9 z M 9.5 29 C 8.669 29 8 29.669 8 30.5 C 8 31.331 8.669 32 9.5 32 L 30.5 32 C 31.331 32 32 31.331 32 30.5 C 32 29.669 31.331 29 30.5 29 L 9.5 29 z" transform="translate(0,8)"/></g></svg>