<svg xmlns="http://www.w3.org/2000/svg" xmlns:svg="http://www.w3.org/2000/svg" id="SVGRoot" width="40" height="40" version="1.1" viewBox="0 0 40 40"><metadata id="metadata7681"/><g id="layer1" transform="translate(0,-8)"><path style="opacity:1;fill:#000;fill-opacity:1;stroke:none;stroke-width:2;stroke-linecap:round;stroke-linejoin:round;stroke-miterlimit:4;stroke-dasharray:none;stroke-opacity:1" id="rect8150" d="m 11,18 c -1.662,0 -3,1.338 -3,3 v 14 c 0,1.662 1.338,3 3,3 h 18 c 1.662,0 3,-1.338 3,-3 V 21 c 0,-1.662 -1.338,-3 -3,-3 h -7.5 v 4 h 2 c 0.44532,1.7e-4 0.668306,0.538516 0.353516,0.853516 l -3.5,3.5 c -0.19527,0.19519 -0.511762,0.19519 -0.707032,0 l -3.5,-3.5 C 15.831694,22.538516 16.05467,22.00017 16.5,22 h 2 v -4 z m 1,11 h 2 c 0.554,0 1,0.446 1,1 0,0.554 -0.446,1 -1,1 h -2 c -0.554,0 -1,-0.446 -1,-1 0,-0.554 0.446,-1 1,-1 z m 6,0 h 10 c 0.554,0 1,0.446 1,1 0,0.554 -0.446,1 -1,1 H 18 c -0.554,0 -1,-0.446 -1,-1 0,-0.554 0.446,-1 1,-1 z m -6,4 h 10 c 0.554,0 1,0.446 1,1 0,0.554 -0.446,1 -1,1 H 12 c -0.554,0 -1,-0.446 -1,-1 0,-0.554 0.446,-1 1,-1 z m 14,0 h 2 c 0.554,0 1,0.446 1,1 0,0.554 -0.446,1 -1,1 h -2 c -0.554,0 -1,-0.446 -1,-1 0,-0.554 0.446,-1 1,-1 z"/></g></svg>