<svg xmlns="http://www.w3.org/2000/svg" xmlns:svg="http://www.w3.org/2000/svg" id="SVGRoot" width="40" height="40" version="1.1" viewBox="0 0 40 40"><metadata id="metadata7681"/><g id="layer1" transform="translate(0,-8)"><path style="opacity:1;fill:#000;fill-opacity:1;stroke:none;stroke-width:4.23851871;stroke-linecap:round;stroke-linejoin:miter;stroke-miterlimit:4;stroke-dasharray:none;stroke-dashoffset:0;stroke-opacity:1;paint-order:markers fill stroke" id="path2055" d="M 13.5,14 A 2.500005,2.500005 0 0 0 11,16.5 v 18 a 2.500005,2.500005 0 0 0 2.5,2.5 h 18 A 2.500005,2.500005 0 0 0 34,34.5 v -18 A 2.500005,2.500005 0 0 0 31.5,14 Z m 0,2.5 h 18 v 18 h -18 z m 4.501953,3 c -0.383337,0 -0.766797,0.147696 -1.060547,0.441406 -0.5875,0.58747 -0.5874,1.531721 0,2.119141 l 3.4375,3.439453 -3.4375,3.439453 c -0.5875,0.58743 -0.5875,1.531721 0,2.119141 0.5875,0.58747 1.531641,0.58744 2.119141,0 l 3.439453,-3.4375 3.439453,3.4375 c 0.5876,0.58742 1.531641,0.58747 2.119141,0 0.5875,-0.58741 0.5875,-1.533684 0,-2.121094 l -3.4375,-3.4375 3.4375,-3.439453 c 0.5875,-0.58743 0.5875,-1.531671 0,-2.119141 -0.5874,-0.58742 -1.531541,-0.58744 -2.119141,0 L 22.5,23.378906 19.0625,19.941406 C 18.7688,19.647696 18.385291,19.5 18.001953,19.5 Z M 6,20 V 39.5 A 2.500005,2.500005 0 0 0 8.5,42 H 28 V 39.5 H 8.5 V 20 Z"/></g></svg>