<svg xmlns="http://www.w3.org/2000/svg" xmlns:svg="http://www.w3.org/2000/svg" id="SVGRoot" width="40" height="40" version="1.1" viewBox="0 0 40 40"><metadata id="metadata7681"/><g id="layer1" transform="translate(0,-8)"><path style="color:#000;display:inline;overflow:visible;visibility:visible;opacity:1;fill:#000;fill-opacity:1;fill-rule:nonzero;stroke:none;stroke-width:.14999956;stroke-linecap:round;stroke-linejoin:round;stroke-miterlimit:4;stroke-dasharray:none;stroke-dashoffset:0;stroke-opacity:1;marker:none;enable-background:accumulate" id="path7875" d="m 8,16 v 3 h 20 v -3 z m 0,6 v 3 h 20 v -3 z m 0,6 v 3 h 12 v -3 z m 18.5,1 A 1.5,1.5 0 0 0 25,30.5 V 33 H 22.5 A 1.5,1.5 0 0 0 21,34.5 1.5,1.5 0 0 0 22.5,36 H 25 v 2.5 A 1.5,1.5 0 0 0 26.5,40 1.5,1.5 0 0 0 28,38.5 V 36 h 2.5 A 1.5,1.5 0 0 0 32,34.5 1.5,1.5 0 0 0 30.5,33 H 28 V 30.5 A 1.5,1.5 0 0 0 26.5,29 Z"/></g></svg>