<svg xmlns="http://www.w3.org/2000/svg" xmlns:svg="http://www.w3.org/2000/svg" id="SVGRoot" width="40" height="40" version="1.1" viewBox="0 0 40 40"><metadata id="metadata7681"/><g id="layer1" transform="translate(0,-8)"><path style="color:#000;display:inline;overflow:visible;visibility:visible;fill:#000;fill-opacity:1;fill-rule:nonzero;stroke:none;stroke-width:1.5;marker:none;enable-background:accumulate" id="path7890" d="M 9.027344,16 C 8.464435,15.98466 7.999847,16.436883 8,17 v 14 c 5.03e-4,0.771519 0.837433,1.251938 1.503906,0.863281 l 12,-7 c 0.660238,-0.386164 0.660238,-1.340398 0,-1.726562 l -12,-7 C 9.359045,16.051869 9.195155,16.004852 9.027344,16 Z M 28,20 a 2,2 0 0 0 -2,2 v 9.998047 0.132812 c -0.3264,-0.0862 -0.6624,-0.131012 -1,-0.132812 -2.2091,0 -4,1.79086 -4,4 0,2.20914 1.7909,4 4,4 2.2091,0 4,-1.79086 4,-4 V 23 h 1 c 1.1046,0 2,-0.89543 2,-2 v -1 z"/></g></svg>