<svg xmlns="http://www.w3.org/2000/svg" xmlns:svg="http://www.w3.org/2000/svg" id="SVGRoot" width="48" height="48" version="1.1" viewBox="0 0 48 48"><metadata id="metadata7681"/><g id="layer1"><path id="path2889" style="fill:#000;stroke-width:2" d="m 20,6 c -1.1,0 -2,0.9 -2,2 v 10 h -3.1797 c -1.78,0 -2.6799,2.15992 -1.4199,3.41992 l 9.1797,9.17969 c 0.78,0.78 2.0403,0.78 2.8203,0 l 9.1797,-9.17969 C 35.8401,20.15992 34.9597,18 33.1797,18 H 30 V 8 C 30,6.9 29.1,6 28,6 Z m 2,4 h 4 v 12 h 2.3398 L 24,26.33984 19.6602,22 H 22 Z M 12,36 c -1.1,0 -2,0.9 -2,2 0,1.1 0.9,2 2,2 h 24 c 1.1,0 2,-0.9 2,-2 0,-1.1 -0.9,-2 -2,-2 z"/></g></svg>