<svg xmlns="http://www.w3.org/2000/svg" xmlns:svg="http://www.w3.org/2000/svg" id="svg6424" width="18" height="18" version="1.1" viewBox="0 0 18 18"><metadata id="metadata6421"/><g id="layer1" transform="translate(0,-296.64999)"><path style="color:#000;display:inline;overflow:visible;visibility:visible;opacity:1;vector-effect:none;fill:#000;fill-opacity:1;fill-rule:nonzero;stroke:none;stroke-width:1.25;stroke-linecap:round;stroke-linejoin:round;stroke-miterlimit:4;stroke-dasharray:none;stroke-dashoffset:0;stroke-opacity:1;marker:none;paint-order:markers fill stroke;enable-background:accumulate" id="path6239" d="m 11.812563,305.65009 a 0.625,0.625 0 0 1 -0.183125,0.44189 l -4.3688755,4.3689 -0.00625,0.006 a 0.625,0.625 0 0 1 -0.441875,0.18311 0.625,0.625 0 0 1 -0.625,-0.625 0.625,0.625 0 0 1 0.183125,-0.44189 l 3.9330625,-3.93311 -3.927,-3.927 a 0.625,0.625 0 0 1 -0.1891875,-0.448 0.625,0.625 0 0 1 0.625,-0.625 0.625,0.625 0 0 1 0.441875,0.18311 l 4.3689375,4.36889 a 0.625,0.625 0 0 1 0.189313,0.44785 z"/></g></svg>