<svg xmlns="http://www.w3.org/2000/svg" xmlns:svg="http://www.w3.org/2000/svg" id="svg4682" width="48" height="48" version="1.1"><metadata id="metadata4687"/><g id="layer1" transform="translate(-2,-1002.3622)"><path style="color:#000;display:inline;overflow:visible;visibility:visible;opacity:1;vector-effect:none;fill:#fff;fill-opacity:1;fill-rule:nonzero;stroke:none;stroke-width:3;stroke-linecap:round;stroke-linejoin:round;stroke-miterlimit:4;stroke-dasharray:none;stroke-dashoffset:0;stroke-opacity:1;marker:none;paint-order:markers fill stroke;enable-background:accumulate" id="path6239" d="m 19.24985,1026.3626 a 1.5,1.5 0 0 1 0.4395,-1.0605 l 10.4853,-10.4855 0.015,-0.015 a 1.5,1.5 0 0 1 1.0605,-0.4394 1.5,1.5 0 0 1 1.5,1.5 1.5,1.5 0 0 1 -0.4395,1.0606 l -9.4394,9.4395 9.4248,9.4248 a 1.5,1.5 0 0 1 0.4541,1.0752 1.5,1.5 0 0 1 -1.5,1.5 1.5,1.5 0 0 1 -1.0605,-0.4395 l -10.4855,-10.4853 a 1.5,1.5 0 0 1 -0.4543,-1.0749 z"/></g></svg>