<svg xmlns="http://www.w3.org/2000/svg" xmlns:svg="http://www.w3.org/2000/svg" id="svg4682" width="24" height="24" version="1.1"><metadata id="metadata4687"/><g id="layer1" transform="translate(0,-1028.3622)"><path style="color:#000;display:inline;overflow:visible;visibility:visible;opacity:1;fill:#fafafa;fill-opacity:1;fill-rule:nonzero;stroke:none;stroke-width:1;stroke-linecap:round;stroke-linejoin:round;stroke-miterlimit:3.70000005;stroke-dasharray:none;stroke-dashoffset:0;stroke-opacity:1;marker:none;enable-background:accumulate" id="path5562" d="m 6,1033.3622 c -1.108,0 -2,0.892 -2,2 v 10 c 0,1.108 0.892,2 2,2 h 12 c 1.108,0 2,-0.892 2,-2 v -10 c 0,-1.108 -0.892,-2 -2,-2 h -5 v 3 h 2 l -3,3 -3,-3 h 2 v -3 z m 0,8 h 2.5 v 1.5 H 6 Z m 4,0 h 8 v 1.5 h -8 z m -4,2.5 h 8 v 1.5 H 6 Z m 9.5,0 H 18 v 1.5 h -2.5 z"/></g></svg>