<svg xmlns="http://www.w3.org/2000/svg" xmlns:svg="http://www.w3.org/2000/svg" id="SVGRoot" width="48" height="48" version="1.1" viewBox="0 0 48 48"><metadata id="metadata7681"/><g id="layer1"><path style="opacity:1;fill:#000;fill-opacity:1;stroke:none;stroke-width:6.09600544;stroke-linecap:round;stroke-linejoin:round;stroke-miterlimit:4;stroke-dasharray:none;stroke-dashoffset:0;stroke-opacity:1" id="path18489" d="M 24 8 C 15.163442 7.9999989 7.9999967 15.163444 8 24 C 7.9999967 32.836556 15.163442 40.000001 24 40 C 32.836558 40.000001 40.000003 32.836556 40 24 C 40.000003 15.163444 32.836558 7.9999989 24 8 z M 24 12 C 30.627417 12.000004 35.999998 17.372585 36 24 C 35.999998 30.627415 30.627417 35.999996 24 36 C 17.372583 35.999996 12.000002 30.627415 12 24 C 12.000002 17.372585 17.372583 12.000004 24 12 z M 24 16 C 23.169 16 22.5 16.669 22.5 17.5 L 22.5 25 C 22.5 25.42553 22.676214 25.807578 22.958984 26.080078 L 26.828125 29.949219 C 27.415725 30.536829 28.361609 30.536829 28.949219 29.949219 C 29.536819 29.361619 29.536819 28.415745 28.949219 27.828125 L 25.5 24.378906 L 25.5 17.5 C 25.5 16.669 24.831 16 24 16 z"/></g></svg>