<svg xmlns="http://www.w3.org/2000/svg" xmlns:svg="http://www.w3.org/2000/svg" id="svg7" width="12" height="12" version="1.1" viewBox="0 0 12 12"><metadata id="metadata13"/><title id="title2">ic-server/On@1x</title><path id="path3758" style="color:#000;overflow:visible;fill:#fff;stroke:none;stroke-width:1;stroke-linecap:round;stroke-linejoin:miter;stroke-miterlimit:1.5;stroke-dasharray:none;stop-color:#000" d="M 2,1 C 1.45465,1 1,1.4547 1,2 v 5.5 c 0,0.5454 0.45465,1 1,1 H 5.5 V 10 h -2 C 3.223,10 3,10.2156 3,10.4844 v 0.031 c 0,0.2688 0.223,0.4844 0.5,0.4844 h 5 c 0.277,0 0.5,-0.2156 0.5,-0.4844 v -0.031 C 9,10.2156 8.777,10 8.5,10 h -2 V 8.5 H 10 c 0.54535,0 1,-0.4546 1,-1 v -4 c 0,-0.5453 -0.45465,-1 -1,-1 H 6.20703 l -1.5,-1.5 z m 0,1 h 2.29297 l 1.5,1.5 H 10 v 4 H 2 Z M 1.48828,10 A 0.5,0.5 0 0 0 1,10.5 0.5,0.5 0 0 0 1.5,11 0.5,0.5 0 0 0 2,10.5 0.5,0.5 0 0 0 1.5,10 0.5,0.5 0 0 0 1.4883,10 Z m 9,0 A 0.5,0.5 0 0 0 10,10.5 0.5,0.5 0 0 0 10.5,11 0.5,0.5 0 0 0 11,10.5 0.5,0.5 0 0 0 10.5,10 0.5,0.5 0 0 0 10.4883,10 Z"/></svg>