<svg xmlns="http://www.w3.org/2000/svg" xmlns:svg="http://www.w3.org/2000/svg" id="SVGRoot" width="48" height="48" version="1.1" viewBox="0 0 48 48"><metadata id="metadata3532"/><g id="layer1"><path id="path3276" d="m 36,6 c 1.1,0 2,0.9 2,2 V 18 H 34 V 8 C 34,6.9 34.9,6 36,6 Z M 12,6 c 1.1,0 2,0.9 2,2 V 26 H 10 V 8 c 0,-1.1 0.9,-2 2,-2 z m 28,20 h -2 v 14 c 0,1.1 -0.9,2 -2,2 -1.1,0 -2,-0.9 -2,-2 V 26 h -2 c -1.1,0 -2,-0.9 -2,-2 0,-1.1 0.9,-2 2,-2 h 8 c 1.1,0 2,0.9 2,2 0,1.1 -0.9,2 -2,2 z M 20,14 h 2 V 8 c 0,-1.1 0.9,-2 2,-2 1.1,0 2,0.9 2,2 v 6 h 2 c 1.1,0 2,0.9 2,2 0,1.1 -0.9,2 -2,2 h -8 c -1.1,0 -2,-0.9 -2,-2 0,-1.1 0.9,-2 2,-2 z m 4,28 c -1.1,0 -2,-0.9 -2,-2 V 22 h 4 v 18 c 0,1.1 -0.9,2 -2,2 z M 18,32 c 0,1.1 -0.9,2 -2,2 h -2 v 6 c 0,1.1 -0.9,2 -2,2 -1.1,0 -2,-0.9 -2,-2 V 34 H 8 C 6.9,34 6,33.1 6,32 6,30.9 6.9,30 8,30 h 8 c 1.1,0 2,0.9 2,2 z" style="fill:#000;stroke-width:2"/></g></svg>