<svg xmlns="http://www.w3.org/2000/svg" xmlns:svg="http://www.w3.org/2000/svg" id="SVGRoot" width="40" height="40" version="1.1" viewBox="0 0 40 40"><metadata id="metadata7681"/><g id="layer1" transform="translate(0,-8)"><circle id="circle1599" cx="20" cy="28" r="20" style="color:#000;display:inline;overflow:visible;visibility:visible;opacity:1;vector-effect:none;fill:#f80;fill-opacity:1;fill-rule:nonzero;stroke:none;stroke-width:12.59842491;stroke-linecap:butt;stroke-linejoin:round;stroke-miterlimit:4;stroke-dasharray:none;stroke-dashoffset:0;stroke-opacity:1;marker:none;enable-background:accumulate"/><path style="opacity:1;fill:#fafafa;fill-opacity:1;stroke:none;stroke-width:1.12815213;stroke-linecap:round;stroke-linejoin:bevel;stroke-miterlimit:4;stroke-dasharray:none;stroke-dashoffset:0;stroke-opacity:1" id="rect1587" d="m 17,21.800781 a 6,6 0 0 0 -6,6 6,6 0 0 0 6,6 v 1 c 0,0.44505 0.534416,0.666516 0.853516,0.353516 l 2,-2 c 0.1952,-0.19525 0.1952,-0.511781 0,-0.707031 l -2,-2 C 17.534416,30.134266 16.9997,30.355581 17,30.800781 v 1 a 4,4 0 0 1 -4,-4 4,4 0 0 1 4,-4 h 3 v -2 z m 5,0 v 2 h 7 v -2 z m 0,5 v 2 h 7 v -2 z m 0,5 v 2 h 7 v -2 z"/></g></svg>