<svg xmlns="http://www.w3.org/2000/svg" xmlns:svg="http://www.w3.org/2000/svg" id="SVGRoot" width="24" height="24" version="1.1" viewBox="0 0 24 24"><metadata id="metadata9731"/><g id="layer1" transform="translate(0,4)"><path style="opacity:1;fill:#000;fill-opacity:1;stroke:none;stroke-width:1.08253181;stroke-linecap:round;stroke-linejoin:round;stroke-miterlimit:4;stroke-dasharray:none;stroke-opacity:1" id="rect1329" d="m 12,-2 c -0.831,0 -1.5,0.669 -1.5,1.5 v 7 h -7 C 2.669,6.5 2,7.169 2,8 2,8.831 2.669,9.5 3.5,9.5 h 7 v 7 c 0,0.831 0.669,1.5 1.5,1.5 0.831,0 1.5,-0.669 1.5,-1.5 v -7 h 7 C 21.331,9.5 22,8.831 22,8 22,7.169 21.331,6.5 20.5,6.5 h -7 v -7 C 13.5,-1.331 12.831,-2 12,-2 Z"/></g></svg>