<svg xmlns="http://www.w3.org/2000/svg" xmlns:svg="http://www.w3.org/2000/svg" id="SVGRoot" width="48" height="48" version="1.1" viewBox="0 0 48 48"><metadata id="metadata7681"/><g id="layer1"><path style="opacity:1;fill:#000;fill-opacity:1;stroke:none;stroke-width:.1;stroke-linecap:round;stroke-linejoin:miter;stroke-miterlimit:4;stroke-dasharray:none;stroke-opacity:1" id="path8145-1" d="m 15,6 c -1.662,0 -3,1.338 -3,3 v 24 c 0,1.662 1.338,3 3,3 h 24 c 1.662,0 3,-1.338 3,-3 V 9 C 42,7.338 40.662,6 39,6 Z m 0,3 H 39 V 33 H 15 Z m -9,4 v 26 c 0,1.65685 1.3431,3 3,3 H 35 V 39 H 9 V 13 Z m 14,1 c -1.108,0 -2,0.89196 -2,2 v 10 c 0,1.108 0.892,2 2,2 h 14 c 1.108,0 2,-0.892 2,-2 V 14 H 32.5 L 34,17 H 31 L 29.5,14 H 28 l 1.5,3 h -3 L 25,14 h -1.5 l 1.5,3 h -3 l -1.5,-3 z"/></g></svg>