<svg xmlns="http://www.w3.org/2000/svg" xmlns:svg="http://www.w3.org/2000/svg" id="SVGRoot" width="48" height="48" version="1.1" viewBox="0 0 48 48"><metadata id="metadata7681"/><g id="layer1"><path style="opacity:1;fill:#000;fill-opacity:1;stroke:none;stroke-width:.75590551;stroke-linecap:round;stroke-linejoin:round;stroke-miterlimit:4;stroke-dasharray:none;stroke-dashoffset:0;stroke-opacity:1;paint-order:markers fill stroke" id="rect1776" d="m 15,6 c -1.662,0 -3,1.338 -3,3 v 24 c 0,1.662 1.338,3 3,3 h 24 c 1.662,0 3,-1.338 3,-3 V 9 C 42,7.338 40.662,6 39,6 Z m 0,3 H 39 V 33 H 15 Z m 11.685547,3.011719 a 9,9 0 0 0 -7.845703,5.191406 9,9 0 0 0 4.351562,11.960937 9,9 0 0 0 11.902344,-4.242187 1.5,1.5 0 0 0 0.0625,-0.109375 v -0.002 a 1.5,1.5 0 0 0 -0.724609,-1.994141 1.5,1.5 0 0 0 -1.994141,0.726563 6.0000043,6.0000043 0 0 1 -7.972656,2.902343 6.0000043,6.0000043 0 0 1 -2.902344,-7.974609 6.0000043,6.0000043 0 0 1 7.972656,-2.902344 6.0000043,6.0000043 0 0 1 2.074219,1.615235 l -1.462891,1.46289 C 29.833584,18.961574 30.0545,19.49982 30.5,19.5 h 5 c 0.2761,-3e-5 0.5,-0.22387 0.5,-0.5 v -5 c 1e-4,-0.28234 -0.233425,-0.50878 -0.515625,-0.5 -0.1272,0.004 -0.247991,0.05639 -0.337891,0.146484 l -1.408203,1.408204 a 9,9 0 0 0 -2.935547,-2.205079 9,9 0 0 0 -4.113281,-0.83789 z M 6,13 v 26 c 0,1.65685 1.3431,3 3,3 H 35 V 39 H 9 V 13 Z"/></g></svg>