<svg xmlns="http://www.w3.org/2000/svg" xmlns:svg="http://www.w3.org/2000/svg" id="SVGRoot" width="108" height="108" version="1.1" viewBox="0 0 108 108"><metadata id="metadata1603"/><g id="layer1"><path id="path1152" style="fill:#fff;fill-opacity:1;stroke:none;stroke-width:.0862069" d="m 57.679668,34.641272 c 0,0 -0.66268,-2.282771 -1.431619,-3.068313 -0.556121,-0.568101 -1.227401,-1.023422 -2.249966,-1.023423 -1.022675,0 -1.693845,0.455322 -2.249967,1.023423 -0.769048,0.785542 -1.431619,3.068313 -1.431619,3.068313 L 41.551002,60.41042 h -3.298778 c -1.087804,0 -2.119217,0.951398 -2.455042,2.04489 L 32.217158,74.726612 C 31.738855,76.366388 31.912574,78 34.162441,78 h 19.835642 19.839548 c 2.249746,0 2.423466,-1.633612 1.945283,-3.273388 L 72.202889,62.45531 c -0.336065,-1.093493 -1.365404,-2.04489 -2.453088,-2.04489 h -3.302686 z m -6.339749,3.222609 c 1.819893,0.627931 3.454373,0.666352 5.324139,0.01758 l 3.027299,8.890492 c -1.853235,1.096264 -3.676531,1.673803 -5.69718,1.673803 -2.016789,0 -3.839303,-0.575832 -5.689369,-1.667944 z m 11.763496,18.933311 2.9648,8.704948 c 0.115045,0.337785 -0.102091,0.732965 -0.3789,0.947252 -3.191873,2.466603 -7.678218,3.37004 -11.695138,3.36909 -4.019291,-8.3e-4 -8.487971,-0.934838 -11.691233,-3.388621 -0.275538,-0.21114 -0.481146,-0.608529 -0.367181,-0.943346 l 2.956987,-8.68737 c 2.84506,2.168657 5.887152,2.792927 9.10338,2.792927 3.216456,0 6.261537,-0.625457 9.107285,-2.79488 z"/></g></svg>