<svg xmlns="http://www.w3.org/2000/svg" xmlns:svg="http://www.w3.org/2000/svg" id="svg4682" width="24" height="24" version="1.1"><metadata id="metadata4687"/><g id="layer1" transform="translate(0,-1028.3622)"><path style="color:#000;font-style:normal;font-variant:normal;font-weight:400;font-stretch:normal;font-size:medium;line-height:normal;font-family:sans-serif;font-variant-ligatures:normal;font-variant-position:normal;font-variant-caps:normal;font-variant-numeric:normal;font-variant-alternates:normal;font-feature-settings:normal;text-indent:0;text-align:start;text-decoration:none;text-decoration-line:none;text-decoration-style:solid;text-decoration-color:#000;letter-spacing:normal;word-spacing:normal;text-transform:none;writing-mode:lr-tb;direction:ltr;text-orientation:mixed;dominant-baseline:auto;baseline-shift:baseline;text-anchor:start;white-space:normal;shape-padding:0;clip-rule:nonzero;display:inline;overflow:visible;visibility:visible;opacity:1;isolation:auto;mix-blend-mode:normal;color-interpolation:sRGB;color-interpolation-filters:linearRGB;solid-color:#000;solid-opacity:1;vector-effect:none;fill:#fafafa;fill-opacity:1;fill-rule:nonzero;stroke:none;stroke-width:1.99960649;stroke-linecap:round;stroke-linejoin:round;stroke-miterlimit:4;stroke-dasharray:none;stroke-dashoffset:0;stroke-opacity:1;marker:none;paint-order:markers fill stroke;color-rendering:auto;image-rendering:auto;shape-rendering:auto;text-rendering:auto;enable-background:accumulate" id="ellipse11151" d="m 9.9999,1031.3621 c -3.8542,0 -7,3.1459 -7,7 0,3.8542 3.1458,7 7,7 1.748,0 3.345,-0.652 4.5742,-1.7188 l 0.4258,0.4258 v 0.7071 l 4.2832,4.2832 a 1,1 0 0 0 0.01,0.01 1,1 0 0 0 0.707,0.293 1,1 0 0 0 1,-1 1,1 0 0 0 -0.293,-0.707 l -4.2929,-4.293 h -0.7071 l -0.4258,-0.4258 c 1.0666,-1.2295 1.7186,-2.8265 1.7186,-4.5745 0,-3.8541 -3.1458,-7 -7,-7 z m 0,2 c 2.7735,0 5,2.2265 5,5 0,2.7735 -2.2265,5.002 -5,5.002 -2.7735,0 -5,-2.2285 -5,-5.002 0,-2.7735 2.2265,-5 5,-5 z"/></g></svg>