<svg xmlns="http://www.w3.org/2000/svg" xmlns:svg="http://www.w3.org/2000/svg" id="svg4682" width="48" height="48" version="1.1"><metadata id="metadata4687"/><g id="layer1" transform="translate(0,-1004.3622)"><path style="color:#000;display:inline;overflow:visible;visibility:visible;fill:#757575;fill-opacity:1;fill-rule:nonzero;stroke:none;stroke-width:2;marker:none;enable-background:accumulate" id="path5250-3" d="m 10,1014.3622 c -2.20912,0 -4,1.7908 -4,4 v 20 c 0,2.2092 1.79088,4 4,4 h 14 c 0,-9.9412 8.05888,-18 18,-18 v -2 c 0,-2.216 -1.784,-4 -4,-4 H 24 l -4,-4 z m 4.5,10 h 3 v 4.5 H 22 v 3 h -4.5 v 4.5 h -3 v -4.5 H 10 v -3 h 4.5 z m 27.5,3 c -8.28428,0 -15,6.7158 -15,15 h 3 c 0,-6.6274 5.37258,-12 12,-12 z m 0,6 c -4.97056,0 -9,4.0294 -9,9 h 3 c 0,-3.3136 2.6863,-6 6,-6 z m 0,6 c -1.65686,0 -3,1.3432 -3,3 h 3 z"/></g></svg>