<svg xmlns="http://www.w3.org/2000/svg" xmlns:svg="http://www.w3.org/2000/svg" id="svg4682" width="24" height="36" version="1.1"><metadata id="metadata4687"/><g id="layer1" transform="translate(0,-1016.3622)"><rect style="fill:#aaa;fill-opacity:.2;stroke:none;stroke-width:2;stroke-miterlimit:4;stroke-dasharray:none;stroke-opacity:1" id="rect814" width="24" height="36" x="0" y="1016.362" ry="0"/><path style="color:#000;display:inline;overflow:visible;visibility:visible;fill:#757575;fill-opacity:1;fill-rule:nonzero;stroke:none;stroke-width:1;marker:none;enable-background:accumulate" id="path8187" d="m 5,1027.3622 c -1.108,0 -1.81785,0.9071 -2,2 v 1 9 c 0,1.108 0.892,2 2,2 h 14 c 1.108,0 2,-0.892 2,-2 v -8 c 0,-1.108 -0.892,-2 -2,-2 h -7 l -2,-2 z m 6,5 h 0.375 l 0.875,1.75 h 1.5 l -0.875,-1.75 h 0.75 l 0.875,1.75 H 16 l -0.875,-1.75 h 0.75 l 0.875,1.75 h 1.5 l -0.875,-1.75 H 18 19 v 1 5 c 0,0.554 -0.446,1 -1,1 h -7 c -0.554,0 -1,-0.446 -1,-1 v -5 c 0,-0.554 0.446,-1 1,-1 z"/></g></svg>