<svg xmlns="http://www.w3.org/2000/svg" xmlns:svg="http://www.w3.org/2000/svg" id="svg4682" width="24" height="24" version="1.1"><metadata id="metadata4687"/><g id="layer1" transform="translate(0,-1028.3622)"><path style="color:#000;font-style:normal;font-variant:normal;font-weight:400;font-stretch:normal;font-size:medium;line-height:normal;font-family:sans-serif;font-variant-ligatures:normal;font-variant-position:normal;font-variant-caps:normal;font-variant-numeric:normal;font-variant-alternates:normal;font-feature-settings:normal;text-indent:0;text-align:start;text-decoration:none;text-decoration-line:none;text-decoration-style:solid;text-decoration-color:#000;letter-spacing:normal;word-spacing:normal;text-transform:none;writing-mode:lr-tb;direction:ltr;text-orientation:mixed;dominant-baseline:auto;baseline-shift:baseline;text-anchor:start;white-space:normal;shape-padding:0;clip-rule:nonzero;display:inline;overflow:visible;visibility:visible;opacity:1;isolation:auto;mix-blend-mode:normal;color-interpolation:sRGB;color-interpolation-filters:linearRGB;solid-color:#000;solid-opacity:1;vector-effect:none;fill:#fafafa;fill-opacity:1;fill-rule:nonzero;stroke:none;stroke-width:.99999136;stroke-linecap:round;stroke-linejoin:round;stroke-miterlimit:4;stroke-dasharray:none;stroke-dashoffset:0;stroke-opacity:1;marker:none;paint-order:markers fill stroke;color-rendering:auto;image-rendering:auto;shape-rendering:auto;text-rendering:auto;enable-background:accumulate" id="path10958" d="m 11.5,1029.3622 c -0.1275,0 -0.2491,0.055 -0.3398,0.1445 l -2.5137,2.5 c -0.1963,0.1953 -0.1963,0.5118 0,0.7071 l 2.5137,2.5 c 0.3168,0.3148 0.8572,0.092 0.8574,-0.3536 v -1.498 c 3.8696,0.01 6.9824,3.128 6.9824,7 0,3.8779 -3.1221,7 -7,7 -3.8779,0 -7,-3.1221 -7,-7 H 3 c 0,4.9587 4.0414,9 9,9 4.9587,0 9,-4.0413 9,-9 0,-4.9528 -4.0318,-8.9904 -8.9824,-9 v -1.502 c -10e-4,-0.2816 -0.2347,-0.5068 -0.5176,-0.498 z m -1.0039,8 c -0.2715,-0.01 -0.496,0.2261 -0.4961,0.5156 v 4.9668 c -4e-4,0.3975 0.4037,0.6475 0.7266,0.4492 l 4.0312,-2.4843 c 0.3225,-0.1988 0.3225,-0.6958 0,-0.8946 l -4.0312,-2.4824 c -0.07,-0.044 -0.1493,-0.068 -0.2305,-0.07 z"/></g></svg>