<svg xmlns="http://www.w3.org/2000/svg" xmlns:svg="http://www.w3.org/2000/svg" id="SVGRoot" width="24" height="24" version="1.1" viewBox="0 0 24 24"><metadata id="metadata2415"/><g id="layer1"><path id="path2737" style="opacity:1;fill:#000;fill-opacity:1;stroke:none;stroke-width:1.91868;stroke-linecap:round;stroke-linejoin:round;stroke-miterlimit:4;stroke-dasharray:none;stroke-dashoffset:0;stroke-opacity:1;paint-order:markers fill stroke" d="M 12.707031,0.5 C 12.314852,0.5072 11.99997,0.82651351 12,1.21875 V 4.3125 c -5.298299,0 -9.59375,4.2954511 -9.59375,9.59375 0,5.298299 4.295451,9.59375 9.59375,9.59375 5.298299,0 9.59375,-4.295451 9.59375,-9.59375 h -1.919922 c 0,4.238639 -3.435188,7.675781 -7.673828,7.675781 -4.23864,0 -7.6738281,-3.437142 -7.6738281,-7.675781 C 4.3261719,9.6676101 7.76136,6.2324219 12,6.2324219 v 3.1152343 c 2.49e-4,0.6400951 0.77292,0.9613938 1.226562,0.5097657 L 17.306641,5.78125 C 17.588154,5.4995565 17.5877,5.0443022 17.304688,4.7636719 L 13.226562,0.70898438 C 13.088273,0.57207487 12.901614,0.4960184 12.707031,0.5 Z"/></g></svg>