<svg xmlns="http://www.w3.org/2000/svg" xmlns:svg="http://www.w3.org/2000/svg" id="svg4682" width="24" height="24" version="1.1"><metadata id="metadata4687"/><g id="layer1" transform="translate(0,-1028.3622)"><path id="path12062" style="fill:#000;stroke-width:1" d="M 19 2.9980469 C 17.9 2.9980469 17 3.8980469 17 4.9980469 L 17 13.548828 C 16.06 13.008828 14.899922 12.798516 13.669922 13.228516 C 12.329922 13.708516 11.298594 14.898828 11.058594 16.298828 C 10.598594 19.038828 12.918436 21.379219 15.648438 20.949219 C 17.608438 20.639219 19 18.839609 19 16.849609 L 19 6.9980469 L 21 6.9980469 C 22.1 6.9980469 23 6.0980469 23 4.9980469 C 23 3.8980469 22.1 2.9980469 21 2.9980469 L 19 2.9980469 z M 10.287109 3 C 10.073409 3 9.8351625 3.0237437 9.6640625 3.1523438 C 9.3256625 3.4056437 9.1893312 3.8131063 8.8945312 4.6914062 C 8.5999314 5.5697063 8.5878906 5.6132812 8.5878906 5.6132812 C 9.8186906 6.2285812 10.710628 6.2861813 11.986328 5.6132812 C 11.986328 5.6132812 11.972287 5.5663063 11.679688 4.6914062 C 11.386088 3.8165062 11.250556 3.4117437 10.910156 3.1523438 C 10.740156 3.0228436 10.500909 3 10.287109 3 z M 7.5136719 8.8359375 L 7.5097656 8.84375 L 6.2792969 12.537109 L 6.2792969 12.546875 C 6.2792969 12.545875 6.291875 12.547109 6.296875 12.537109 C 7.3191721 13.423142 8.5528202 13.914497 9.8105469 14.015625 A 6 6 0 0 1 13.830078 11.128906 L 13.066406 8.8359375 C 11.199806 10.229738 9.3599719 10.217537 7.5136719 8.8359375 z M 4.3671875 14.382812 C 3.9579875 14.382812 3.5765312 14.691909 3.4570312 15.099609 L 2.7402344 17.537109 C 2.5060344 18.337209 2.2742625 19.131247 2.0390625 19.935547 C 1.9400625 20.271647 2.0405188 20.518553 2.1992188 20.689453 C 2.2972187 20.795253 2.4174969 20.872828 2.5292969 20.923828 C 2.6406969 20.973828 2.7185406 21 2.8066406 21 L 10.287109 21 L 10.535156 21 A 6 6 0 0 1 9.0683594 17.884766 C 7.6261769 17.684239 6.2828299 17.130375 5.3710938 16.238281 C 5.1389938 16.011181 5.2171937 15.778006 5.3710938 15.316406 C 5.4734938 15.008706 5.6660156 14.388672 5.6660156 14.388672 L 4.3691406 14.388672 L 4.3671875 14.382812 z" transform="translate(0,1028.3622)"/></g></svg>