<svg xmlns="http://www.w3.org/2000/svg" xmlns:svg="http://www.w3.org/2000/svg" id="svg4682" width="32" height="32" version="1.1"><metadata id="metadata4687"/><g id="layer1" transform="translate(0,-1020.3622)"><g id="g847" transform="matrix(0,1.3333333,-1.3333333,0,32,1020.3622)"><path id="path833" d="M 0,0 H 24 V 24 H 0 Z" style="fill:none"/><path id="path835" d="m 12,8 c 1.1,0 2,-0.9 2,-2 0,-1.1 -0.9,-2 -2,-2 -1.1,0 -2,0.9 -2,2 0,1.1 0.9,2 2,2 z m 0,2 c -1.1,0 -2,0.9 -2,2 0,1.1 0.9,2 2,2 1.1,0 2,-0.9 2,-2 0,-1.1 -0.9,-2 -2,-2 z m 0,6 c -1.1,0 -2,0.9 -2,2 0,1.1 0.9,2 2,2 1.1,0 2,-0.9 2,-2 0,-1.1 -0.9,-2 -2,-2 z" style="fill:#616161;fill-opacity:1"/></g></g></svg>