<svg xmlns="http://www.w3.org/2000/svg" xmlns:svg="http://www.w3.org/2000/svg" id="SVGRoot" width="36" height="36" version="1.1" viewBox="0 0 36 36"><metadata id="metadata2415"/><g id="layer1"><path style="opacity:1;fill:#000;fill-opacity:1;stroke:none;stroke-width:2;stroke-linecap:round;stroke-linejoin:round;stroke-miterlimit:4;stroke-dasharray:none;stroke-dashoffset:0;stroke-opacity:1;paint-order:markers fill stroke" id="path2737" d="m 18.736328,4.0253906 c -0.4088,0.0075 -0.736358,0.34114 -0.736328,0.75 V 8 C 12.477153,8 8,12.477153 8,18 c 0,5.522847 4.477153,10 10,10 5.522847,0 10,-4.477153 10,-10 h -2 c 0,4.418278 -3.581722,8 -8,8 -4.418278,0 -8,-3.581722 -8,-8 0,-4.418278 3.581722,-8 8,-8 v 3.248047 c 2.6e-4,0.667223 0.80643,1.002018 1.279297,0.53125 L 23.53125,9.53125 c 0.293443,-0.293632 0.292637,-0.769976 -0.002,-1.0625 l -4.25,-4.2265625 C 19.135097,4.0994756 18.939158,4.0212406 18.736328,4.0253906 Z"/></g></svg>