<svg xmlns="http://www.w3.org/2000/svg" xmlns:svg="http://www.w3.org/2000/svg" id="SVGRoot" width="36" height="36" version="1.1" viewBox="0 0 36 36"><metadata id="metadata2415"/><g id="layer1"><path style="opacity:1;fill:#000;fill-opacity:1;stroke:none;stroke-width:1.5370425;stroke-linecap:round;stroke-linejoin:round;stroke-miterlimit:4;stroke-dasharray:none;stroke-dashoffset:0;stroke-opacity:1;paint-order:markers fill stroke" id="rect2276" d="m 9.5,9 c -1.108,0 -2,0.892 -2,2 v 12 c 0,1.108 0.892,2 2,2 H 6 v 2 h 24 v -2 h -3.5 c 1.108,0 2,-0.892 2,-2 V 11 c 0,-1.108 -0.892,-2 -2,-2 z m 0,2 h 17 v 12 h -17 z m 10.00391,2 C 19.22625,12.9979 19.00002,13.222369 19,13.5 V 15 c -6,0 -6,6 -6,6 0,0 0,-3 6,-3 v 1.5 c 1.4e-4,0.427517 0.50204,0.657722 0.82617,0.378906 l 3.5,-3 c 0.23165,-0.199471 0.23165,-0.558341 0,-0.757812 l -3.5,-3 C 19.73647,13.043874 19.62228,13.00095 19.50391,13 Z"/></g></svg>