<svg xmlns="http://www.w3.org/2000/svg" xmlns:svg="http://www.w3.org/2000/svg" id="SVGRoot" width="36" height="36" version="1.1" viewBox="0 0 36 36"><metadata id="metadata2415"/><g id="layer1"><path id="path2253" d="m 19,28 h 8 c 1.108,0 2,-0.892 2,-2 V 9.9999996 c 0,-1.108 -0.892,-2 -2,-2 H 9 c -1.108,0 -2,0.892 -2,2 V 16 H 9 V 9.9999996 H 27 V 26 H 19 Z M 7,18 v 2 c 4.41828,0 8,3.581722 8,8 h 2 C 17,22.477153 12.52285,18 7,18 Z m 0,4 v 2 c 2.20914,0 4,1.790861 4,4 h 2 c 0,-3.313708 -2.68629,-6 -6,-6 z m 0,4 v 2 H 9 C 9,26.895431 8.10457,26 7,26 Z" style="opacity:1;fill:#000;fill-opacity:1;stroke:none;stroke-width:1.5;stroke-linecap:round;stroke-linejoin:round;stroke-miterlimit:4;stroke-dasharray:none;stroke-dashoffset:0;stroke-opacity:1;paint-order:markers fill stroke"/></g></svg>