<svg xmlns="http://www.w3.org/2000/svg" xmlns:svg="http://www.w3.org/2000/svg" id="SVGRoot" width="36" height="36" version="1.1" viewBox="0 0 36 36"><metadata id="metadata2415"/><g id="layer1"><path style="color:#000;display:inline;overflow:visible;visibility:visible;fill:#000;fill-opacity:1;fill-rule:nonzero;stroke:none;stroke-width:1.60356736;marker:none;enable-background:accumulate" id="rect2467" d="M 11.945312 3 C 10.313917 3 9 4.3380003 9 6 L 9 30 C 9 31.662 10.313918 33 11.945312 33 L 12.054688 33 C 13.686083 33 15 31.662 15 30 L 15 6 C 15 4.3380003 13.686083 3 12.054688 3 L 11.945312 3 z M 23.933594 3 C 22.308269 3 21 4.3379987 21 6 L 21 30 C 21 31.662001 22.308269 33 23.933594 33 L 24.066406 33 C 25.691731 33 27 31.662001 27 30 L 27 6 C 27 4.3379987 25.691731 3 24.066406 3 L 23.933594 3 z"/></g></svg>