<svg xmlns="http://www.w3.org/2000/svg" xmlns:svg="http://www.w3.org/2000/svg" id="SVGRoot" width="48" height="48" version="1.1" viewBox="0 0 48 48"><metadata id="metadata3532"/><g id="layer1"><path id="rect3645-3" style="color:#000;overflow:visible;fill:#000;fill-opacity:1;stroke:none;stroke-width:3.93043;stroke-linecap:butt;stroke-linejoin:round;stroke-miterlimit:4;stroke-dasharray:none" d="M 21.939453 6 C 19.753977 6.033059 17.99975 7.8142737 18 10 L 18 14 L 18 27.072266 C 16.783892 26.369954 15.404336 26.000144 14 26 C 9.581722 26 6 29.581722 6 34 C 6 38.418278 9.581722 42 14 42 C 18.418278 42 22 38.418278 22 34 L 22 14 L 26.060547 14 C 28.246023 13.966941 30.00025 12.185727 30 10 L 30 6 L 21.939453 6 z M 29 24 C 28.447738 24.000055 28.000055 24.447738 28 25 L 28 41 C 28.000041 41.79846 28.886451 42.271272 29.554688 41.832031 L 41.554688 33.832031 C 42.148274 33.436148 42.148274 32.563852 41.554688 32.167969 L 29.554688 24.167969 C 29.390424 24.058458 29.197422 24.000014 29 24 z M 13.970703 30 C 16.210092 30 18 31.790861 18 34 C 18 36.209139 16.209139 38 14 38 C 11.790861 38 10 36.209139 10 34 C 9.99975 31.814274 11.754977 30.033059 13.970703 30 z"/><g id="path4358" style="opacity:1"><path style="color:#000;font-style:normal;font-variant:normal;font-weight:400;font-stretch:normal;font-size:medium;line-height:normal;font-family:sans-serif;font-variant-ligatures:normal;font-variant-position:normal;font-variant-caps:normal;font-variant-numeric:normal;font-variant-alternates:normal;font-variant-east-asian:normal;font-feature-settings:normal;font-variation-settings:normal;text-indent:0;text-align:start;text-decoration:none;text-decoration-line:none;text-decoration-style:solid;text-decoration-color:#000;letter-spacing:normal;word-spacing:normal;text-transform:none;writing-mode:lr-tb;direction:ltr;text-orientation:mixed;dominant-baseline:auto;baseline-shift:baseline;text-anchor:start;white-space:normal;shape-padding:0;shape-margin:0;inline-size:0;clip-rule:nonzero;display:inline;overflow:visible;visibility:visible;isolation:auto;mix-blend-mode:normal;color-interpolation:sRGB;color-interpolation-filters:linearRGB;solid-color:#000;solid-opacity:1;vector-effect:none;fill:#000;fill-opacity:1;fill-rule:evenodd;stroke:none;stroke-width:2;stroke-linecap:butt;stroke-linejoin:round;stroke-miterlimit:4;stroke-dasharray:none;stroke-dashoffset:0;stroke-opacity:1;color-rendering:auto;image-rendering:auto;shape-rendering:auto;text-rendering:auto;enable-background:accumulate;stop-color:#000;stop-opacity:1" id="path835" d="m 41,32.999931 -12,-8 v 16 z"/></g></g></svg>