<svg xmlns="http://www.w3.org/2000/svg" xmlns:svg="http://www.w3.org/2000/svg" id="SVGRoot" width="48" height="48" version="1.1" viewBox="0 0 48 48"><metadata id="metadata3532"/><g id="layer1"><path id="path7266" style="color:#000;display:inline;overflow:visible;visibility:visible;fill:#000;fill-opacity:1;fill-rule:nonzero;stroke:none;stroke-width:4;stroke-linejoin:round;stroke-miterlimit:4;stroke-dasharray:none;marker:none;enable-background:accumulate" d="M 6 10 C 4.892 10 4 10.892002 4 12 C 4 13.107998 4.892 14 6 14 L 30 14 C 31.108 14 32 13.107998 32 12 C 32 10.892002 31.108 10 30 10 L 6 10 z M 6 20 C 4.892 20 4 20.892002 4 22 C 4 23.107998 4.892 24 6 24 L 22 24 C 23.108 24 24 23.107998 24 22 C 24 20.892002 23.108 20 22 20 L 6 20 z M 28 20 L 28 40 L 44 30 L 28 20 z M 6 30 C 4.892 30 4 30.892002 4 32 C 4 33.107998 4.892 34 6 34 L 22 34 C 23.108 34 24 33.107998 24 32 C 24 30.892002 23.108 30 22 30 L 6 30 z"/></g></svg>