<svg xmlns="http://www.w3.org/2000/svg" width="48" height="48" version="1.1" viewBox="0 0 48 48"><title>ic_pause_player@1x</title><g id="ic_pause_player" fill="none" fill-rule="evenodd" stroke="none" stroke-width="1"><g fill="#FFF" fill-rule="nonzero"><path d="M18.3333333,13.3333333 L18.3333333,26.6666667 L15,26.6666667 L15,13.3333333 L18.3333333,13.3333333 Z M25,13.3333333 L25,26.6666667 L21.6666667,26.6666667 L21.6666667,13.3333333 L25,13.3333333 Z M20,0 C8.96,0 0,8.96 0,20 C0,31.04 8.96,40 20,40 C31.04,40 40,31.04 40,20 C40,8.96 31.04,0 20,0 Z M20,37.5 C10.353125,37.5 2.5,29.646875 2.5,20 C2.5,10.353125 10.353125,2.5 20,2.5 C29.646875,2.5 37.5,10.353125 37.5,20 C37.5,29.646875 29.646875,37.5 20,37.5 Z" transform="translate(4.000000, 4.000000)"/></g></g></svg>