<svg xmlns="http://www.w3.org/2000/svg" xmlns:svg="http://www.w3.org/2000/svg" id="SVGRoot" width="36" height="36" version="1.1" viewBox="0 0 36 36"><metadata id="metadata2415"/><g id="layer1"><path style="fill:#000;fill-opacity:1;fill-rule:evenodd;stroke:none;stroke-width:.75px;stroke-linecap:butt;stroke-linejoin:miter;stroke-opacity:1" id="path2502" d="M 9 9 C 7.892 9 7 9.892 7 11 L 7 25 C 7 26.108 7.892 27 9 27 L 27 27 C 28.108 27 29 26.108 29 25 L 29 11 C 29 9.892 28.108 9 27 9 L 9 9 z M 9 11 L 27 11 L 27 25 L 9 25 L 9 11 z M 11 13 L 11 18 L 13 18 L 13 15 L 16 15 L 16 13 L 11 13 z M 23 18 L 23 21 L 20 21 L 20 23 L 25 23 L 25 18 L 23 18 z"/></g></svg>