<svg xmlns="http://www.w3.org/2000/svg" xmlns:svg="http://www.w3.org/2000/svg" id="SVGRoot" width="36" height="36" version="1.1" viewBox="0 0 36 36"><metadata id="metadata2415"/><g id="layer1"><path style="opacity:1;fill:#000;fill-opacity:1;stroke:none;stroke-width:3.75;stroke-linecap:round;stroke-linejoin:round;stroke-miterlimit:4;stroke-dasharray:none;stroke-dashoffset:0;stroke-opacity:1;paint-order:markers fill stroke" id="path2476" d="M 10.5 15.5 A 2.5 2.5 0 0 0 8 18 A 2.5 2.5 0 0 0 10.5 20.5 A 2.5 2.5 0 0 0 13 18 A 2.5 2.5 0 0 0 10.5 15.5 z M 18 15.5 A 2.5 2.5 0 0 0 15.5 18 A 2.5 2.5 0 0 0 18 20.5 A 2.5 2.5 0 0 0 20.5 18 A 2.5 2.5 0 0 0 18 15.5 z M 25.5 15.5 A 2.5 2.5 0 0 0 23 18 A 2.5 2.5 0 0 0 25.5 20.5 A 2.5 2.5 0 0 0 28 18 A 2.5 2.5 0 0 0 25.5 15.5 z"/></g></svg>