<svg xmlns="http://www.w3.org/2000/svg" xmlns:svg="http://www.w3.org/2000/svg" id="SVGRoot" width="48" height="48" version="1.1" viewBox="0 0 48 48"><metadata id="metadata7681"/><g id="layer1"><rect style="fill:#060000;fill-opacity:1" id="rect814" width="48" height="48" x="0" y="0"/><path style="fill:#fff;fill-rule:evenodd;stroke:none;stroke-width:1px;stroke-linecap:butt;stroke-linejoin:miter;stroke-opacity:1" id="path2232" d="M 36,6 17.80664,13.2773 C 16.71435,13.7522 16.00033,14.8267 16,16.0234 V 17 32.1015 h -0.006 c -0.32721,-0.067 -0.66025,-0.1 -0.99414,-0.1 -2.76142,0 -5,2.2385 -5,5 C 9.99986,39.7629 12.23858,42 15,42 c 2.76142,0 4.99986,-2.2371 4.99986,-4.9985 V 19.4019 l 12,-4.8008 V 28.103 h -0.006 c -0.32721,-0.066 -0.66025,-0.1 -0.99414,-0.1 -2.76142,0 -5,2.2385 -5,5 0,2.7614 2.23858,5 5,5 2.76142,0 5,-2.2386 5,-5 z"/></g></svg>