<svg xmlns="http://www.w3.org/2000/svg" xmlns:svg="http://www.w3.org/2000/svg" id="SVGRoot" width="36" height="36" version="1.1" viewBox="0 0 36 36"><metadata id="metadata2415"/><g id="layer1"><path style="opacity:1;fill:#000;fill-opacity:1;stroke:none;stroke-width:2.04939008;stroke-linecap:round;stroke-linejoin:round;stroke-miterlimit:4;stroke-dasharray:none;stroke-dashoffset:0;stroke-opacity:1;paint-order:markers fill stroke" id="rect2602" d="m 13.5,7.499998 c -1.385,0 -2.5,1.115 -2.5,2.5 v 16.000004 c 0,1.385 1.115,2.5 2.5,2.5 h 9 c 1.385,0 2.5,-1.115 2.5,-2.5 V 9.999998 c 0,-1.385 -1.115,-2.5 -2.5,-2.5 z m -0.5,3.5 H 23 V 25.000002 H 13 Z m 5,3 a 2,2 0 0 0 -2,2 v 1.5 c -0.554,0 -1,0.446 -1,1 v 2.5 c 0,0.554 0.446,1 1,1 h 4 c 0.554,0 1,-0.446 1,-1 v -2.5 c 0,-0.554 -0.446,-1 -1,-1 v -1.5 a 2,2 0 0 0 -2,-2 z m 0,1 a 1,1 0 0 1 1,1 v 1.5 h -2 v -1.5 a 1,1 0 0 1 1,-1 z"/></g></svg>