<svg xmlns="http://www.w3.org/2000/svg" xmlns:svg="http://www.w3.org/2000/svg" id="SVGRoot" width="36" height="36" version="1.1" viewBox="0 0 36 36"><metadata id="metadata2415"/><g id="layer1"><path style="opacity:1;fill:#000;fill-opacity:1;stroke:none;stroke-width:1.5;stroke-linecap:round;stroke-linejoin:round;stroke-miterlimit:4;stroke-dasharray:none;stroke-dashoffset:0;stroke-opacity:1;paint-order:markers fill stroke" id="path2179" d="M 9 8 C 7.892 8 7 8.892 7 10 L 7 16 L 9 16 L 9 10 L 27 10 L 27 26 L 19 26 L 19 28 L 27 28 C 28.108 28 29 27.108 29 26 L 29 10 C 29 8.892 28.108 8 27 8 L 9 8 z M 11 12 L 11 16.712891 A 12 12 0 0 1 18.294922 24 L 25 24 L 25 12 L 11 12 z M 7 18 L 7 20 C 11.41828 20 15 23.581722 15 28 L 17 28 C 17 22.477153 12.52285 18 7 18 z M 7 22 L 7 24 C 9.20914 24 11 25.790861 11 28 L 13 28 C 13 24.686292 10.31371 22 7 22 z M 7 26 L 7 28 L 9 28 C 9 26.895431 8.10457 26 7 26 z"/></g></svg>