<svg xmlns="http://www.w3.org/2000/svg" xmlns:svg="http://www.w3.org/2000/svg" id="SVGRoot" width="36" height="36" version="1.1" viewBox="0 0 36 36"><metadata id="metadata2415"/><g id="layer1"><path style="opacity:1;fill:#000;fill-opacity:1;stroke:none;stroke-width:2;stroke-linecap:round;stroke-linejoin:round;stroke-miterlimit:4;stroke-dasharray:none;stroke-dashoffset:0;stroke-opacity:1;paint-order:markers fill stroke" id="path2547" d="M 15.984375 7.5 C 15.473211 7.5 14.962052 7.6961556 14.570312 8.0878906 L 9.7851562 12.871094 L 8.7070312 11.792969 C 8.0770413 11.163409 7.00035 11.60936 7 12.5 L 7 16 C 7.00006 16.55226 7.44774 16.99994 8 17 L 11.5 17 C 12.39064 16.99965 12.836591 15.922959 12.207031 15.292969 L 11.199219 14.285156 L 15.984375 9.5019531 L 22.982422 16.5 L 25.810547 16.5 L 17.398438 8.0878906 C 17.006702 7.6961556 16.495539 7.5 15.984375 7.5 z M 24.5 19 C 23.60936 19.00035 23.163409 20.077037 23.792969 20.707031 L 24.800781 21.714844 L 20.015625 26.498047 L 13.017578 19.5 L 10.189453 19.5 L 18.601562 27.912109 C 19.385033 28.69558 20.646207 28.695579 21.429688 27.912109 L 26.214844 23.128906 L 27.292969 24.207031 C 27.922959 24.836585 28.99965 24.390635 29 23.5 L 29 20 C 28.99994 19.447738 28.55226 19.000055 28 19 L 24.5 19 z"/></g></svg>