<svg xmlns="http://www.w3.org/2000/svg" xmlns:svg="http://www.w3.org/2000/svg" id="SVGRoot" width="36" height="36" version="1.1" viewBox="0 0 36 36"><metadata id="metadata2415"/><g id="layer1"><path style="opacity:1;fill:#000;fill-opacity:1;stroke:none;stroke-width:2;stroke-linecap:round;stroke-linejoin:round;stroke-miterlimit:4;stroke-dasharray:none;stroke-dashoffset:0;stroke-opacity:1;paint-order:markers fill stroke" id="path2737" d="m 17.263672,4.0253906 c -0.20283,-0.00415 -0.398769,0.074085 -0.542969,0.2167969 l -4.25,4.2265625 c -0.29459,0.292524 -0.295443,0.768868 -0.002,1.0625 l 4.251953,4.248047 C 17.193523,14.250065 17.99974,13.91527 18,13.248047 V 10 c 4.418278,0 8,3.581722 8,8 0,4.418278 -3.581722,8 -8,8 -4.418278,0 -8,-3.581722 -8,-8 H 8 c 0,5.522847 4.477153,10 10,10 5.522847,0 10,-4.477153 10,-10 C 28,12.477153 23.522847,8 18,8 V 4.7753906 c 3e-5,-0.40886 -0.327528,-0.7425 -0.736328,-0.75 z"/></g></svg>