<svg xmlns="http://www.w3.org/2000/svg" xmlns:svg="http://www.w3.org/2000/svg" id="SVGRoot" width="36" height="36" version="1.1" viewBox="0 0 36 36"><metadata id="metadata2415"/><g id="layer1"><path style="color:#000;font-style:normal;font-variant:normal;font-weight:400;font-stretch:normal;font-size:medium;line-height:normal;font-family:sans-serif;font-variant-ligatures:normal;font-variant-position:normal;font-variant-caps:normal;font-variant-numeric:normal;font-variant-alternates:normal;font-feature-settings:normal;text-indent:0;text-align:start;text-decoration:none;text-decoration-line:none;text-decoration-style:solid;text-decoration-color:#000;letter-spacing:normal;word-spacing:normal;text-transform:none;writing-mode:lr-tb;direction:ltr;text-orientation:mixed;dominant-baseline:auto;baseline-shift:baseline;text-anchor:start;white-space:normal;shape-padding:0;clip-rule:nonzero;display:inline;overflow:visible;visibility:visible;opacity:1;isolation:auto;mix-blend-mode:normal;color-interpolation:sRGB;color-interpolation-filters:linearRGB;solid-color:#000;solid-opacity:1;vector-effect:none;fill:#000;fill-opacity:1;fill-rule:evenodd;stroke:none;stroke-width:2.99947977;stroke-linecap:butt;stroke-linejoin:round;stroke-miterlimit:4;stroke-dasharray:none;stroke-dashoffset:0;stroke-opacity:1;color-rendering:auto;image-rendering:auto;shape-rendering:auto;text-rendering:auto;enable-background:accumulate" id="path2448" d="M 26.501953,9 C 27.329471,9.0011601 27.999918,9.6725449 28,10.5 v 14.996094 c 8.72e-4,1.205745 -1.349662,1.919847 -2.345703,1.240234 L 14.65625,19.238281 c -0.874801,-0.595243 -0.874801,-1.885226 0,-2.480469 L 25.654297,9.2597656 C 25.904192,9.0897918 26.199724,8.9992126 26.501953,9 Z M 9.4999996,9 C 10.331,9 11,9.669 11,10.5 v 15 c 0,0.831 -0.669,1.5 -1.5000004,1.5 -0.831,0 -1.5,-0.669 -1.5,-1.5 v -15 c 0,-0.831 0.669,-1.5 1.5,-1.5 z"/></g></svg>