<svg xmlns="http://www.w3.org/2000/svg" xmlns:svg="http://www.w3.org/2000/svg" id="svg6" width="24" height="24" fill="#000" version="1.1" viewBox="0 0 24 24"><metadata id="metadata12"/><path id="path2" fill="none" d="M0 0h24v24H0V0z"/><path id="path4" d="m 17.733788,6.275313 c -0.354948,-0.3549488 -0.928327,-0.3549488 -1.283276,0 L 12,10.716724 7.5494882,6.2662117 c -0.3549489,-0.3549488 -0.9283277,-0.3549488 -1.2832765,0 -0.3549488,0.3549488 -0.3549488,0.9283276 0,1.2832765 L 10.716724,12 6.2662117,16.450512 c -0.3549488,0.354949 -0.3549488,0.928328 0,1.283276 0.3549488,0.354949 0.9283276,0.354949 1.2832765,0 L 12,13.283276 l 4.450512,4.450512 c 0.354949,0.354949 0.928328,0.354949 1.283276,0 0.354949,-0.354948 0.354949,-0.928327 0,-1.283276 L 13.283276,12 17.733788,7.5494882 c 0.345848,-0.3458476 0.345848,-0.9283277 0,-1.2741752 z" style="stroke-width:.91012514"/></svg>