<svg xmlns="http://www.w3.org/2000/svg" xmlns:svg="http://www.w3.org/2000/svg" id="SVGRoot" width="48" height="48" version="1.1" viewBox="0 0 48 48"><metadata id="metadata3532"/><g id="layer1"><path id="path6626" style="fill:#000;fill-opacity:1;stroke:none;stroke-width:1;stroke-linecap:round;stroke-linejoin:round;stroke-miterlimit:4;stroke-dasharray:none;stroke-opacity:0" d="M 8 8 C 5.784 8 4 9.784 4 12 L 4 36 C 4 38.216 5.784 40 8 40 L 40 40 C 42.216 40 44 38.216 44 36 L 44 12 C 44 9.784 42.216 8 40 8 L 8 8 z M 8 12 L 40 12 L 40 36 L 8 36 L 8 12 z M 20 17 C 19.447738 17.000055 19.000055 17.447738 19 18 L 19 30 C 18.999825 30.798464 19.879943 31.271266 20.554688 30.832031 L 29.554688 24.832031 C 30.148274 24.436148 30.148274 23.563852 29.554688 23.167969 L 20.554688 17.167969 C 20.390424 17.058458 20.197422 17.000014 20 17 z"/></g></svg>