<svg xmlns="http://www.w3.org/2000/svg" xmlns:svg="http://www.w3.org/2000/svg" id="SVGRoot" width="48" height="48" version="1.1" viewBox="0 0 48 48"><metadata id="metadata3532"/><g id="layer1"><path id="path3249" style="fill:#000;stroke-width:2" d="M 8 8 C 5.784 8 4 9.784 4 12 L 4 36 C 4 38.216 5.784 40 8 40 L 40 40 C 42.216 40 44 38.216 44 36 L 44 12 C 44 9.784 42.216 8 40 8 L 8 8 z M 8 12 L 40 12 L 40 36 L 8 36 L 8 12 z M 24 16 C 22.9 16 22 16.9 22 18 L 22 24 C 22 25.1 22.9 26 24 26 L 34 26 C 35.1 26 36 25.1 36 24 L 36 18 C 36 16.9 35.1 16 34 16 L 24 16 z"/></g></svg>