<svg xmlns="http://www.w3.org/2000/svg" xmlns:svg="http://www.w3.org/2000/svg" id="SVGRoot" width="36" height="36" version="1.1" viewBox="0 0 36 36"><metadata id="metadata2415"/><g id="layer1"><path style="opacity:1;fill:#000;fill-opacity:1;stroke:none;stroke-width:1.21267831;stroke-linecap:round;stroke-linejoin:round;stroke-miterlimit:4;stroke-dasharray:none;stroke-dashoffset:0;stroke-opacity:1;paint-order:markers fill stroke" id="circle2349" d="M 20.5 8.3261719 L 20.5 10.939453 A 7.5 7.5 0 0 1 25.5 18 A 7.5 7.5 0 0 1 20.5 25.0625 L 20.5 27.669922 A 10 10 0 0 0 28 18 A 10 10 0 0 0 20.5 8.3261719 z M 18 9 L 12.5 14.5 L 8 14.5 L 8 21.5 L 12.5 21.5 L 18 27 L 18 9 z M 20.5 13.677734 L 20.5 22.324219 A 5.0000005 5.0000005 0 0 0 23 18 A 5.0000005 5.0000005 0 0 0 20.5 13.677734 z"/></g></svg>