<svg xmlns="http://www.w3.org/2000/svg" xmlns:svg="http://www.w3.org/2000/svg" id="SVGRoot" width="96" height="96" version="1.1" viewBox="0 0 96 96"><metadata id="metadata9488"/><g id="layer1"><path style="opacity:1;fill:#000;fill-opacity:1;stroke:none;stroke-width:2;stroke-linecap:round;stroke-linejoin:bevel;stroke-miterlimit:4;stroke-dasharray:none;stroke-dashoffset:0;stroke-opacity:1" id="path18266" d="M 48,0 A 48,48 0 0 0 0,48 48,48 0 0 0 48,96 48,48 0 0 0 96,48 48,48 0 0 0 48,0 Z m 0,16 c 8.83656,0 16,7.16344 16,16 0,8.83652 -7.16344,16 -16,16 -8.83656,0 -16,-7.16348 -16,-16 0,-8.83656 7.16344,-16 16,-16 z m 0,40 c 13.4095,-0.008 26.81064,4.9427 27.91797,14.6875 A 36.000004,36.000004 0 0 1 48,84 36.000004,36.000004 0 0 1 20.08203,70.69922 C 21.18368,60.97863 34.58726,56.00766 48,56 Z"/></g></svg>