<svg xmlns="http://www.w3.org/2000/svg" xmlns:svg="http://www.w3.org/2000/svg" id="SVGRoot" width="36" height="36" version="1.1" viewBox="0 0 36 36"><metadata id="metadata2415"/><g id="layer1"><path style="color:#000;font-style:normal;font-variant:normal;font-weight:400;font-stretch:normal;font-size:medium;line-height:normal;font-family:sans-serif;font-variant-ligatures:normal;font-variant-position:normal;font-variant-caps:normal;font-variant-numeric:normal;font-variant-alternates:normal;font-feature-settings:normal;text-indent:0;text-align:start;text-decoration:none;text-decoration-line:none;text-decoration-style:solid;text-decoration-color:#000;letter-spacing:normal;word-spacing:normal;text-transform:none;writing-mode:lr-tb;direction:ltr;text-orientation:mixed;dominant-baseline:auto;baseline-shift:baseline;text-anchor:start;white-space:normal;shape-padding:0;clip-rule:nonzero;display:inline;overflow:visible;visibility:visible;opacity:1;isolation:auto;mix-blend-mode:normal;color-interpolation:sRGB;color-interpolation-filters:linearRGB;solid-color:#000;solid-opacity:1;vector-effect:none;fill:#000;fill-opacity:1;fill-rule:evenodd;stroke:none;stroke-width:2.99947977;stroke-linecap:butt;stroke-linejoin:round;stroke-miterlimit:4;stroke-dasharray:none;stroke-dashoffset:0;stroke-opacity:1;color-rendering:auto;image-rendering:auto;shape-rendering:auto;text-rendering:auto;enable-background:accumulate" id="path2448" d="M 9.4980469 9 C 8.6705288 9.0011601 8.0000819 9.6725449 8 10.5 L 8 25.496094 C 7.9991276 26.701839 9.3496619 27.415941 10.345703 26.736328 L 21.34375 19.238281 C 22.218551 18.643038 22.218551 17.353055 21.34375 16.757812 L 10.345703 9.2597656 C 10.095808 9.0897918 9.8002759 8.9992126 9.4980469 9 z M 26.5 9 C 25.669 9 25 9.669 25 10.5 L 25 25.5 C 25 26.331 25.669 27 26.5 27 C 27.331 27 28 26.331 28 25.5 L 28 10.5 C 28 9.669 27.331 9 26.5 9 z"/></g></svg>