<svg xmlns="http://www.w3.org/2000/svg" xmlns:svg="http://www.w3.org/2000/svg" id="SVGRoot" width="48" height="48" version="1.1" viewBox="0 0 48 48"><metadata id="metadata7681"/><g id="layer1"><path style="opacity:1;fill:#000;fill-opacity:1;stroke:none;stroke-width:.75590551;stroke-linecap:round;stroke-linejoin:round;stroke-miterlimit:4;stroke-dasharray:none;stroke-dashoffset:0;stroke-opacity:1;paint-order:markers fill stroke" id="path2729" d="m 15,6 c -1.662,0 -3,1.338 -3,3 v 24 c 0,1.662 1.338,3 3,3 h 24 c 1.662,0 3,-1.338 3,-3 V 9 C 42,7.338 40.662,6 39,6 Z m 0,3 H 39 V 33 H 15 Z m 6.001953,3.998047 c -0.51125,1e-6 -1.022362,0.196191 -1.414062,0.587891 -0.7835,0.783469 -0.7834,2.044715 0,2.828124 L 24.171875,21 19.585938,25.585938 c -0.783401,0.783429 -0.783401,2.044715 0,2.828125 0.7835,0.783469 2.044624,0.783429 2.828124,0 L 27,23.828125 l 4.585938,4.583984 c 0.7835,0.7834 2.044624,0.78347 2.828124,0 0.783401,-0.7834 0.783401,-2.044715 0,-2.828125 L 29.828125,21 34.414062,16.414062 c 0.783401,-0.783429 0.7834,-2.044644 0,-2.828124 -0.7834,-0.7834 -2.044624,-0.78343 -2.828124,0 L 27,18.169922 22.416016,13.585938 c -0.3917,-0.391705 -0.902813,-0.587892 -1.414063,-0.587891 z M 6,13 v 26 c 0,1.65685 1.3431,3 3,3 H 35 V 39 H 9 V 13 Z"/></g></svg>