<svg xmlns="http://www.w3.org/2000/svg" xmlns:svg="http://www.w3.org/2000/svg" xmlns:xlink="http://www.w3.org/1999/xlink" id="svg6" x="0" y="0" version="1.1" viewBox="0 0 32 32" style="enable-background:new 0 0 32 32" xml:space="preserve"><style type="text/css">.st0{fill-rule:evenodd;clip-rule:evenodd;fill:#fff}</style><path d="M16,8.7c1.4,0,2.5,1.1,2.5,2.5v1.6h-5v-1.6C13.5,9.8,14.6,8.7,16,8.7z M16,16.8c0.9,0,1.6,0.7,1.6,1.6	S16.9,20,16,20c-0.9,0-1.6-0.7-1.6-1.6S15.1,16.8,16,16.8z M16,7.2c-2.2,0-4,1.8-4,4v1.6h-0.8c-0.9,0-1.6,0.7-1.6,1.6v8	c0,0.9,0.7,1.6,1.6,1.6h9.6c0.9,0,1.6-0.7,1.6-1.6v-8c0-0.9-0.7-1.6-1.6-1.6H20v-1.6C20,9,18.2,7.2,16,7.2z M16,0	c8.8,0,16,7.2,16,16s-7.2,16-16,16S0,24.8,0,16S7.2,0,16,0z" class="st0"/></svg>