<svg xmlns="http://www.w3.org/2000/svg" xmlns:svg="http://www.w3.org/2000/svg" id="SVGRoot" width="48" height="48" version="1.1" viewBox="0 0 48 48"><metadata id="metadata7681"/><g id="layer1"><path id="path7709" style="fill:#000;stroke-width:2" d="M 12,4 C 9.8,4 8,5.8 8,8 v 32 c 0,2.2 1.7805,4 3.9805,4 H 36 c 2.2,0 4,-1.8 4,-4 V 16 L 28,4 Z m 0,4 H 26 V 18 H 36 V 40 H 12 Z m 5.5,19 c -0.831,0 -1.5,0.669 -1.5,1.5 0,0.831 0.669,1.5 1.5,1.5 h 2 C 20.331,30 21,29.331 21,28.5 21,27.669 20.331,27 19.5,27 Z m 8,0 c -0.831,0 -1.5,0.669 -1.5,1.5 0,0.831 0.669,1.5 1.5,1.5 h 5 C 31.331,30 32,29.331 32,28.5 32,27.669 31.331,27 30.5,27 Z m -8,6 c -0.831,0 -1.5,0.669 -1.5,1.5 0,0.831 0.669,1.5 1.5,1.5 h 5 C 23.331,36 24,35.331 24,34.5 24,33.669 23.331,33 22.5,33 Z m 11,0 c -0.831,0 -1.5,0.66898 -1.5,1.5 0,0.83102 0.669,1.5 1.5,1.5 h 2 C 31.331,36 32,35.33102 32,34.5 32,33.66898 31.331,33 30.5,33 Z"/></g></svg>