<svg xmlns="http://www.w3.org/2000/svg" xmlns:svg="http://www.w3.org/2000/svg" id="svg4682" width="24" height="24" version="1.1"><metadata id="metadata4687"/><g id="layer1" transform="translate(0,-1028.3622)"><path id="path5683" d="m 8,1035.3622 c -1.108,0 -2.07524,0.8946 -2,2 v 5 H 4 v -2 l -3,3 3,3 v -2 h 2 c 0,1.108 0.892,2 2,2 H 15.78454 16 c 1.108,0 2,-0.892 2,-2 h 2 v 2 l 3,-3 -3,-3 v 2 h -2 v -5 c 0,-1.108 -0.892,-2 -2,-2 z m 0,5 h 2 v 1.5 H 8 Z m 3.5,0 H 16 v 1.5 h -4.5 z m -3.5,2.5 h 4.5 v 1.5 H 8 Z m 6,0 h 2 v 1.5 h -2 z" style="color:#000;display:inline;overflow:visible;visibility:visible;opacity:1;fill:#212121;fill-opacity:1;fill-rule:nonzero;stroke:none;stroke-width:1;stroke-linecap:round;stroke-linejoin:round;stroke-miterlimit:3.70000005;stroke-dasharray:none;stroke-dashoffset:0;stroke-opacity:1;marker:none;enable-background:accumulate"/></g></svg>