<svg xmlns="http://www.w3.org/2000/svg" xmlns:svg="http://www.w3.org/2000/svg" id="SVGRoot" width="48" height="48" version="1.1" viewBox="0 0 48 48"><metadata id="metadata7681"/><g id="layer1"><path style="opacity:1;fill:#000;fill-opacity:1;stroke:none;stroke-width:6;stroke-linecap:round;stroke-linejoin:round;stroke-miterlimit:4;stroke-dasharray:none;stroke-dashoffset:0;stroke-opacity:1" id="rect18650" d="M 8,8 C 6.892,8 6,8.891998 6,10 v 4 c 0,1.108002 0.892,2 2,2 h 32 c 1.108,0 2,-0.891998 2,-2 V 10 C 42,8.891998 41.108,8 40,8 Z m 2,2 h 4 v 4 H 10 Z M 8,20 c -1.108,0 -2,0.891998 -2,2 v 4 c 0,1.108002 0.892,2 2,2 h 32 c 1.108,0 2,-0.891998 2,-2 v -4 c 0,-1.108002 -0.892,-2 -2,-2 z m 2,2 h 4 v 4 H 10 Z M 8,32 c -1.108,0 -2,0.891998 -2,2 v 4 c 0,1.108002 0.892,2 2,2 h 32 c 1.108,0 2,-0.891998 2,-2 v -4 c 0,-1.108002 -0.892,-2 -2,-2 z m 2,2 h 4 v 4 h -4 z"/></g></svg>