<svg xmlns="http://www.w3.org/2000/svg" xmlns:svg="http://www.w3.org/2000/svg" id="svg4682" width="48" height="48" version="1.1"><metadata id="metadata4687"/><g id="layer1" transform="translate(0,-1004.3622)"><path style="color:#000;display:inline;overflow:visible;visibility:visible;opacity:1;fill:#757575;fill-opacity:1;fill-rule:nonzero;stroke:none;stroke-width:3.9861207;stroke-linecap:round;stroke-linejoin:round;stroke-miterlimit:4;stroke-dasharray:none;stroke-dashoffset:0;stroke-opacity:1;marker:none;enable-background:accumulate" id="path7165" d="m 36.937177,1010.364 c -6.459386,2.8718 -12.477648,5.5364 -18.579608,8.2571 -1.669886,0.7447 -1.669886,2.9926 -1.669886,2.9926 v 14.6598 c -0.186745,-0.022 -0.37448,-0.034 -0.562486,-0.036 -2.79587,0 -5.062373,2.2665 -5.062373,5.0623 0,2.796 2.266503,5.0624 5.062373,5.0624 2.795871,0 5.062374,-2.2664 5.062374,-5.0624 v -17.437 l 11.249719,-4.4999 v 12.9723 c -0.186746,-0.023 -0.374481,-0.034 -0.562487,-0.036 -2.795869,0 -5.062374,2.2665 -5.062374,5.0623 0,2.796 2.266504,5.0624 5.062374,5.0624 2.79587,0 5.062373,-2.2664 5.062373,-5.0624 v -26.9993 z"/></g></svg>