<svg xmlns="http://www.w3.org/2000/svg" xmlns:svg="http://www.w3.org/2000/svg" id="svg4682" width="24" height="24" version="1.1"><metadata id="metadata4687"/><g id="layer1" transform="translate(0,-1028.3622)"><path style="color:#000;display:inline;overflow:visible;visibility:visible;opacity:1;fill:#bdbdbd;fill-opacity:1;fill-rule:nonzero;stroke:none;stroke-width:2.21451163;stroke-linecap:round;stroke-linejoin:round;stroke-miterlimit:4;stroke-dasharray:none;stroke-dashoffset:0;stroke-opacity:1;marker:none;enable-background:accumulate" id="path7165" d="m 19.18732,1030.3632 c -3.588547,1.5955 -6.932026,3.0758 -10.3220045,4.5873 -0.9277141,0.4137 -0.9277141,1.6625 -0.9277141,1.6625 v 8.1443 c -0.1037474,-0.013 -0.2080448,-0.019 -0.3124922,-0.02 -1.5532612,0 -2.8124297,1.2593 -2.8124297,2.8125 0,1.5533 1.2591685,2.8124 2.8124297,2.8124 1.5532613,0 2.8124298,-1.2591 2.8124298,-2.8124 v -9.6873 l 6.249843,-2.4999 v 7.2068 c -0.103747,-0.013 -0.208045,-0.019 -0.312492,-0.02 -1.55326,0 -2.812429,1.2592 -2.812429,2.8124 0,1.5534 1.259169,2.8125 2.812429,2.8125 1.553261,0 2.81243,-1.2591 2.81243,-2.8125 v -14.9996 z"/></g></svg>