<svg xmlns="http://www.w3.org/2000/svg" xmlns:svg="http://www.w3.org/2000/svg" id="SVGRoot" width="48" height="48" version="1.1" viewBox="0 0 48 48"><metadata id="metadata7681"/><g id="layer1"><path style="opacity:1;fill:#000;fill-opacity:1;stroke:none;stroke-width:2.25630426;stroke-linecap:round;stroke-linejoin:bevel;stroke-miterlimit:4;stroke-dasharray:none;stroke-dashoffset:0;stroke-opacity:1" id="rect17782" d="M 18,12 A 12,12 0 0 0 6,24 12,12 0 0 0 18,36 v 2 c 0,0.8901 1.068731,1.333031 1.707031,0.707031 l 4,-4 c 0.3904,-0.3905 0.3904,-1.023562 0,-1.414062 l -4,-4 C 19.068831,28.666969 17.9993,29.1097 18,30 v 2 a 8,8 0 0 1 -8,-8 8,8 0 0 1 8,-8 h 6 v -4 z m 10,0 v 4 h 14 v -4 z m 0,10 v 4 h 14 v -4 z m 0,10 v 4 h 14 v -4 z"/></g></svg>