<svg xmlns="http://www.w3.org/2000/svg" xmlns:svg="http://www.w3.org/2000/svg" id="svg6424" width="24" height="24" version="1.1" viewBox="0 0 24 24"><metadata id="metadata6421"/><g id="layer1" transform="translate(0,-290.64999)"><path style="color:#000;display:inline;overflow:visible;visibility:visible;opacity:1;vector-effect:none;fill:#000;fill-opacity:1;fill-rule:nonzero;stroke:none;stroke-width:2;stroke-linecap:round;stroke-linejoin:round;stroke-miterlimit:4;stroke-dasharray:none;stroke-dashoffset:0;stroke-opacity:1;marker:none;paint-order:markers fill stroke;enable-background:accumulate" id="path6239" d="m 12,297.64999 a 1,1 0 0 0 -0.70703,0.293 l -6.99024,6.9902 -0.01,0.01 a 1,1 0 0 0 -0.29297,0.707 1,1 0 0 0 1,1 1,1 0 0 0 0.70703,-0.293 l 6.29297,-6.2929 6.2832,6.2832 a 1,1 0 0 0 0.7168,0.3027 1,1 0 0 0 1,-1 1,1 0 0 0 -0.29297,-0.707 l -6.99023,-6.9903 A 1,1 0 0 0 12,297.64999 Z"/></g></svg>