<svg xmlns="http://www.w3.org/2000/svg" xmlns:svg="http://www.w3.org/2000/svg" id="svg4682" width="24" height="24" version="1.1"><metadata id="metadata4687"/><g id="layer1" transform="translate(0,-1028.3622)"><path style="color:#000;display:inline;overflow:visible;visibility:visible;opacity:1;fill:#212121;fill-opacity:1;fill-rule:nonzero;stroke:none;stroke-width:.1;stroke-linecap:round;stroke-linejoin:round;stroke-miterlimit:4;stroke-dasharray:none;stroke-dashoffset:0;stroke-opacity:1;marker:none;enable-background:accumulate" id="path6213" d="m 4,1032.3622 v 2 h 14 v -2 z m 0,4 v 2 h 14 v -2 z m 0,4 v 2 h 7 v -2 z m 12,0 c -0.554,0 -1,0.446 -1,1 v 2 h -2 c -0.554,0 -1,0.446 -1,1 0,0.554 0.446,1 1,1 h 2 v 2 c 0,0.554 0.446,1 1,1 0.554,0 1,-0.446 1,-1 v -2 h 2 c 0.554,0 1,-0.446 1,-1 0,-0.554 -0.446,-1 -1,-1 h -2 v -2 c 0,-0.554 -0.446,-1 -1,-1 z"/></g></svg>