<svg xmlns="http://www.w3.org/2000/svg" xmlns:svg="http://www.w3.org/2000/svg" id="svg4682" width="24" height="24" version="1.1"><metadata id="metadata4687"/><g id="layer1" transform="translate(0,-1028.3622)"><path style="color:#000;display:inline;overflow:visible;visibility:visible;opacity:1;fill:#212121;fill-opacity:1;fill-rule:nonzero;stroke:none;stroke-width:.1;stroke-linecap:round;stroke-linejoin:round;stroke-miterlimit:4;stroke-dasharray:none;stroke-dashoffset:0;stroke-opacity:1;marker:none;enable-background:accumulate" id="path6310" d="m 4,1032.3622 v 2 h 14 v -2 z m 0,4 v 2 h 14 v -2 z m 0,4 v 2 h 7 v -2 z m 10,1 a 1,1 0 0 0 -1,1 1,1 0 0 0 0.292969,0.707 l 1.792969,1.793 -1.792969,1.793 A 1,1 0 0 0 13,1047.3622 a 1,1 0 0 0 1,1 1,1 0 0 0 0.707031,-0.293 l 1.792969,-1.7929 1.783203,1.7832 A 1,1 0 0 0 19,1048.3622 a 1,1 0 0 0 1,-1 1,1 0 0 0 -0.292969,-0.707 l -1.792969,-1.793 1.783204,-1.7832 A 1,1 0 0 0 20,1042.3622 a 1,1 0 0 0 -1,-1 1,1 0 0 0 -0.707031,0.293 l -1.792969,1.7929 -1.783203,-1.7832 a 1,1 0 0 0 -0.0098,-0.01 A 1,1 0 0 0 14,1041.3622 Z"/></g></svg>