<svg xmlns="http://www.w3.org/2000/svg" xmlns:svg="http://www.w3.org/2000/svg" id="svg4682" width="24" height="24" version="1.1"><metadata id="metadata4687"/><g id="layer1" transform="translate(0,-1028.3622)"><path style="color:#000;display:inline;overflow:visible;visibility:visible;opacity:1;fill:#212121;fill-opacity:1;fill-rule:nonzero;stroke:none;stroke-width:10;stroke-linecap:round;stroke-linejoin:round;stroke-miterlimit:4;stroke-dasharray:none;stroke-dashoffset:0;stroke-opacity:1;marker:none;enable-background:accumulate" id="path6407" d="M 4.9882812 4.0019531 C 4.4413794 4.0119531 4.0011103 4.4531 4 5 L 4 13.001953 C 4.0001961 13.800553 4.8901455 14.276784 5.5546875 13.833984 L 11.554688 9.8320312 C 12.148312 9.4361313 12.148313 8.5638687 11.554688 8.1679688 L 5.5546875 4.1679688 C 5.3868846 4.0568687 5.1894839 3.9990531 4.9882812 4.0019531 z M 16 12 C 15.446 12 15 12.446 15 13 L 15 15 L 13 15 C 12.446 15 12 15.446 12 16 C 12 16.554 12.446 17 13 17 L 15 17 L 15 19 C 15 19.554 15.446 20 16 20 C 16.554 20 17 19.554 17 19 L 17 17 L 19 17 C 19.554 17 20 16.554 20 16 C 20 15.446 19.554 15 19 15 L 17 15 L 17 13 C 17 12.446 16.554 12 16 12 z" transform="translate(0,1028.3622)"/></g></svg>