<svg xmlns="http://www.w3.org/2000/svg" xmlns:svg="http://www.w3.org/2000/svg" id="svg7566" width="48" height="48" version="1.1" viewBox="0 0 48 48"><metadata id="metadata7563"/><g id="layer1" transform="translate(0,-1074.5197)"><path style="color:#000;display:inline;overflow:visible;visibility:visible;opacity:1;vector-effect:none;fill:#000;fill-opacity:1;fill-rule:nonzero;stroke:none;stroke-width:.2;stroke-linecap:round;stroke-linejoin:round;stroke-miterlimit:4;stroke-dasharray:none;stroke-dashoffset:0;stroke-opacity:1;marker:none;paint-order:normal;enable-background:accumulate" id="path7550" d="m 23.984375,1084.5158 c -1.5553,0.016 -3.105455,1.3671 -3.984375,4.0039 l -7.332031,22 H 10 c -1.108,0 -2,0.892 -2,2 v 2 h 32 v -2 c 0,-1.108 -0.892,-2 -2,-2 H 35.332031 L 28,1088.5197 c -0.8999,-2.6997 -2.460345,-4.0196 -4.015625,-4.0039 z M 24,1093.5197 a 5,5 0 0 1 5,5 c -2e-4,1.326 -0.527017,2.5978 -1.460938,3.5391 -1.29128,1.123 -2.037062,2.7492 -2.039062,4.4609 h -3 c 0.0037,-2.4737 1.036818,-4.8344 2.892578,-6.5605 0.41082,-0.437 0.607622,-0.9281 0.607422,-1.4395 a 2,2 0 0 0 -2,-2 2,2 0 0 0 -2,2 1.5,1.5 0 0 1 -1.5,1.5 1.5,1.5 0 0 1 -1.5,-1.5 5,5 0 0 1 5,-5 z m 0,15 a 2,2 0 0 1 2,2 2,2 0 0 1 -2,2 2,2 0 0 1 -2,-2 2,2 0 0 1 2,-2 z"/></g></svg>