<svg xmlns="http://www.w3.org/2000/svg" xmlns:svg="http://www.w3.org/2000/svg" id="svg4682" width="36" height="36" version="1.1"><metadata id="metadata4687"/><g id="layer1" transform="translate(0,-1016.3622)"><path style="color:#000;display:inline;overflow:visible;visibility:visible;opacity:1;fill:#fafafa;fill-opacity:1;fill-rule:nonzero;stroke:none;stroke-width:15;stroke-linecap:round;stroke-linejoin:round;stroke-miterlimit:4;stroke-dasharray:none;stroke-dashoffset:0;stroke-opacity:1;marker:none;enable-background:accumulate" id="path7485" d="m 18,1022.3622 c -6.627417,0 -12,5.3726 -12,12 0,6.6275 5.372583,12 12,12 6.627417,0 12,-5.3725 12,-12 0,-6.6274 -5.372583,-12 -12,-12 z m 0,3 c 4.970562,0 9,4.0295 9,9 0,4.9706 -4.029438,9 -9,9 -4.970563,0 -9,-4.0294 -9,-9 0,-4.9705 4.029437,-9 9,-9 z m -1.5,3 v 3 h 3 v -3 z m 0,4.5 v 7.5 h 3 v -7.5 z"/></g></svg>