<svg xmlns="http://www.w3.org/2000/svg" xmlns:svg="http://www.w3.org/2000/svg" id="svg7566" width="32" height="32" version="1.1" viewBox="0 0 32 32"><metadata id="metadata7563"/><g id="layer1" transform="translate(0,-1090.5197)"><path style="color:#000;display:inline;overflow:visible;visibility:visible;opacity:1;vector-effect:none;fill:#000;fill-opacity:1;fill-rule:nonzero;stroke:none;stroke-width:.2;stroke-linecap:round;stroke-linejoin:round;stroke-miterlimit:4;stroke-dasharray:none;stroke-dashoffset:0;stroke-opacity:1;marker:none;paint-order:normal;enable-background:accumulate" id="path7543" d="m 16,1091.5198 c -1.5553,0.016 -3.12108,1.3632 -4,4 l -7.332031,22 H 2 c -1.108,0 -2,0.892 -2,2 v 2 h 32 v -2 c 0,-1.108 -0.892,-2 -2,-2 H 27.332031 L 20,1095.5198 c -0.8999,-2.6997 -2.44472,-4.0157 -4,-4 z m 0,8 a 2,2 0 0 1 2,2 2,2 0 0 1 -0.01172,0.1758 H 18 l -1.003906,10.8828 a 0.99999786,0.99999786 0 0 1 0,0.039 l -0.0078,0.062 A 0.99999786,0.99999786 0 0 1 16,1113.5159 a 0.99999786,0.99999786 0 0 1 -0.984375,-0.832 h -0.0039 l -0.0078,-0.094 L 14,1101.6956 h 0.0078 A 2,2 0 0 1 14,1101.5198 a 2,2 0 0 1 2,-2 z m 0,16 a 2,2 0 0 1 2,2 2,2 0 0 1 -2,2 2,2 0 0 1 -2,-2 2,2 0 0 1 2,-2 z"/></g></svg>