<svg xmlns="http://www.w3.org/2000/svg" id="svg9" width="48" height="48" version="1.1" viewBox="0 0 48 48"><metadata id="metadata15"/><title id="title2">ic_play_player@1x</title><g id="ic_play_player" transform="matrix(0.8,0,0,0.8,4.8,4.8)" style="fill:none;fill-rule:evenodd;stroke:none;stroke-width:1"><g id="g6" transform="translate(4,4)" style="fill:#fff;fill-rule:nonzero"><path id="path4" d="M 16,29 28,20 16,11 Z M 20,0 C 8.96,0 0,8.96 0,20 0,31.04 8.96,40 20,40 31.04,40 40,31.04 40,20 40,8.96 31.04,0 20,0 Z m 0,37.5 C 10.353125,37.5 2.5,29.646875 2.5,20 2.5,10.353125 10.353125,2.5 20,2.5 c 9.646875,0 17.5,7.853125 17.5,17.5 0,9.646875 -7.853125,17.5 -17.5,17.5 z"/></g></g></svg>