<svg xmlns="http://www.w3.org/2000/svg" xmlns:svg="http://www.w3.org/2000/svg" id="svg4682" width="40" height="40" version="1.1"><metadata id="metadata4687"/><g id="layer1" transform="translate(0,-1012.3622)"><g id="layer1-5" transform="matrix(1.5384615,0,0,1.5384615,0.76923176,-568.19499)"><path id="path7957" d="m 18,1034.3624 c -0.554,0 -1,0.4459 -1,0.9999 v 9.999 c 0,0.5539 0.446,0.9999 1,0.9999 0.553999,0 1,-0.446 1,-0.9999 v -9.999 c 0,-0.554 -0.446001,-0.9999 -1,-0.9999 z m -10.9805,0 c -0.5591,-0.011 -1.0184,0.4387 -1.0195,0.9979 v 9.999 c -9e-4,0.8142 0.9198,1.2882 1.582,0.8144 l 7,-4.9995 c 0.5579,-0.3988 0.5579,-1.228 0,-1.6268 l -7,-4.9995 c -0.1644,-0.1172 -0.3605,-0.1819 -0.5625,-0.1855 z" style="color:#000;font-style:normal;font-variant:normal;font-weight:400;font-stretch:normal;font-size:medium;line-height:normal;font-family:sans-serif;font-variant-ligatures:normal;font-variant-position:normal;font-variant-caps:normal;font-variant-numeric:normal;font-variant-alternates:normal;font-feature-settings:normal;text-indent:0;text-align:start;text-decoration:none;text-decoration-line:none;text-decoration-style:solid;text-decoration-color:#000;letter-spacing:normal;word-spacing:normal;text-transform:none;writing-mode:lr-tb;direction:ltr;text-orientation:mixed;dominant-baseline:auto;baseline-shift:baseline;text-anchor:start;white-space:normal;shape-padding:0;clip-rule:nonzero;display:inline;overflow:visible;visibility:visible;opacity:1;isolation:auto;mix-blend-mode:normal;color-interpolation:sRGB;color-interpolation-filters:linearRGB;solid-color:#000;solid-opacity:1;vector-effect:none;fill:#212121;fill-opacity:1;fill-rule:evenodd;stroke:none;stroke-width:1.99990106;stroke-linecap:butt;stroke-linejoin:round;stroke-miterlimit:4;stroke-dasharray:none;stroke-dashoffset:0;stroke-opacity:1;color-rendering:auto;image-rendering:auto;shape-rendering:auto;text-rendering:auto;enable-background:accumulate"/></g></g></svg>