<svg xmlns="http://www.w3.org/2000/svg" xmlns:svg="http://www.w3.org/2000/svg" id="svg4682" width="40" height="40" version="1.1"><metadata id="metadata4687"/><g id="layer1" transform="translate(0,-1012.3622)"><path style="color:#000;display:inline;overflow:visible;visibility:visible;fill:#000;fill-opacity:1;fill-rule:nonzero;stroke:none;stroke-width:1.42539322;marker:none;enable-background:accumulate" id="rect7475" d="m 14.666667,1020.3622 c -1.477334,0 -2.666667,1.1893 -2.666667,2.6667 v 18.6666 c 0,1.4774 1.189333,2.6667 2.666667,2.6667 1.477333,0 2.666666,-1.1893 2.666666,-2.6667 v -18.6666 c 0,-1.4774 -1.189333,-2.6667 -2.666666,-2.6667 z m 10.666666,0 c -1.477333,0 -2.666666,1.1893 -2.666666,2.6667 v 18.6666 c 0,1.4774 1.189333,2.6667 2.666666,2.6667 1.477334,0 2.666667,-1.1893 2.666667,-2.6667 v -18.6666 c 0,-1.4774 -1.189333,-2.6667 -2.666667,-2.6667 z"/></g></svg>