<svg xmlns="http://www.w3.org/2000/svg" xmlns:svg="http://www.w3.org/2000/svg" id="svg9" width="62" height="144" version="1.1" viewBox="0 0 62 144"><metadata id="metadata15"/><title id="title2">bightness gesture</title><g id="tips" fill="none" fill-rule="evenodd" stroke="none" stroke-width="1"><g id="tips-video-brightness" fill="#F80" transform="translate(-32.000000, -289.000000)"><g id="bightness-gesture" transform="translate(32.000000, 289.000000)"><path id="Combined-Shape" fill-rule="nonzero" d="M31,0 C48.1208272,0 62,13.8791728 62,31 L62,113 C62,130.120827 48.1208272,144 31,144 C13.8791728,144 0,130.120827 0,113 L0,31 C0,13.8791728 13.8791728,0 31,0 Z M31,2 C15.1439048,2 2.2599781,14.7253658 2.00388517,30.520432 L2,31 L2,113 C2,129.016258 14.9837423,142 31,142 C46.8560952,142 59.7400219,129.274634 59.9961148,113.479568 L60,113 L60,31 C60,14.9837423 47.0162577,2 31,2 Z M35.59,120 L37,121.41 L31,127.41 L25,121.41 L26.41,120 L31,124.58 L35.59,120 Z M31,24 L37,30 L35.59,31.41 L31,26.83 L26.41,31.41 L25,30 L31,24 Z"/></g></g></g></svg>