<svg xmlns="http://www.w3.org/2000/svg" xmlns:svg="http://www.w3.org/2000/svg" id="svg9" width="144" height="62" version="1.1" viewBox="0 0 144 62"><metadata id="metadata15"/><title id="title2">bightness gesture</title><g id="tips" style="fill:none;fill-rule:evenodd;stroke:none;stroke-width:1" transform="translate(0,-82)"><g id="tips-video-brightness" transform="translate(-32,-289)" style="fill:#f80"><g id="bightness-gesture" transform="translate(32,289)"><path id="Combined-Shape" d="M 0,113 C 0,95.879173 13.879173,82 31,82 h 82 c 17.12083,0 31,13.879173 31,31 0,17.12083 -13.87917,31 -31,31 H 31 C 13.879173,144 0,130.12083 0,113 Z m 2,0 c 0,15.85609 12.725366,28.74002 28.520432,28.99611 L 31,142 h 82 c 16.01626,0 29,-12.98374 29,-29 0,-15.856095 -12.72537,-28.740022 -28.52043,-28.996115 L 113,84 H 31 C 14.983742,84 2,96.983742 2,113 Z m 118,-4.59 1.41,-1.41 6,6 -6,6 -1.41,-1.41 4.58,-4.59 z m -96,4.59 6,-6 1.41,1.41 -4.58,4.59 4.58,4.59 L 30,119 Z" style="fill-rule:nonzero"/></g></g></g></svg>