<svg xmlns="http://www.w3.org/2000/svg" xmlns:svg="http://www.w3.org/2000/svg" id="svg6518" width="640" height="352" version="1.1" viewBox="0 0 640 352"><defs id="defs6512"><clipPath id="clipPath4792" clipPathUnits="userSpaceOnUse"><path style="fill:#f80" id="path4794" d="m 48.196759,963.10825 c -1.65441,1.23855 -2.321076,3.2256 -3.761719,7.51954 -1.440643,4.29394 -1.503906,4.51171 -1.503906,4.51171 l -5.265625,15.79688 -6.015625,18.05082 -3.007812,9.0234 h -6.34375 c -2,0 -3.860873,1.5107 -4.445313,3.5039 l -3.503906,11.9199 c -1.144783,3.9115 -2.279638,7.7947 -3.429687,11.7266 -0.481394,1.6434 0.0011,2.852 0.777343,3.6875 0.481014,0.5172 1.074588,0.8913 1.621094,1.1406 0.54688,0.2429 0.920775,0.3731 1.351562,0.3731 1.004345,0 18.539258,-0.01 36.572266,-0.01 v 0 c 18.033008,0 35.567921,0.01 36.572266,0.01 0.430787,0 0.804682,-0.1302 1.351562,-0.3731 0.546506,-0.2493 1.14008,-0.6234 1.621094,-1.1406 0.776228,-0.8355 1.258738,-2.0441 0.777344,-3.6875 -1.150049,-3.9319 -2.284905,-7.8151 -3.429688,-11.7266 l -3.503906,-11.9199 c -0.58444,-1.9932 -2.445313,-3.5039 -4.445313,-3.5039 h -6.34375 l -3.007812,-9.0234 -6.015625,-18.05082 -5.265625,-15.79688 c 0,0 -0.06885,-0.23443 -1.503906,-4.51171 -1.435052,-4.27728 -2.097358,-6.25133 -3.761719,-7.51954 -0.831195,-0.63336 -1.999923,-0.74609 -3.044922,-0.74609 -1.044999,0 -2.208378,0.11982 -3.044922,0.74609 z"/></clipPath></defs><metadata id="metadata6515"/><g id="layer1" transform="translate(-143.06398,-118.25506)"><rect id="rect5885" width="640" height="352" x="143.064" y="118.255" rx="0" ry="0" style="color:#000;display:inline;overflow:visible;visibility:visible;opacity:1;vector-effect:none;fill:#1b1b1b;fill-opacity:1;fill-rule:nonzero;stroke:none;stroke-width:4.20475;stroke-linecap:round;stroke-linejoin:round;stroke-miterlimit:4;stroke-dasharray:none;stroke-dashoffset:0;stroke-opacity:1;marker:none;paint-order:markers fill stroke;enable-background:accumulate"/><path id="path4" d="m 520.20884,218.05503 19.04994,38.10006 h -28.575 l -19.04994,-38.10006 h -19.05012 l 19.05012,38.10006 h -28.575 l -19.05012,-38.10006 h -19.04994 l 19.04994,38.10006 h -28.575 l -19.04994,-38.10006 h -9.52506 c -10.47744,0 -18.95472,8.5725 -18.95472,19.04994 l -0.09,114.3 c 0,10.47762 8.5725,19.05012 19.04994,19.05012 H 539.264 c 10.47744,0 19.04994,-8.5725 19.04994,-19.05012 V 218.05503 Z" style="fill:#757575;fill-opacity:1;stroke-width:9.525"/></g></svg>